<?xml version="1.0" standalone="no"?>
<!DOCTYPE svg PUBLIC "-//W3C//DTD SVG 20010904//EN"
 "http://www.w3.org/TR/2001/REC-SVG-20010904/DTD/svg10.dtd">
<svg version="1.0" xmlns="http://www.w3.org/2000/svg"
 width="1930.000000pt" height="1022.000000pt" viewBox="0 0 1930.000000 1022.000000"
 preserveAspectRatio="xMidYMid meet">

<g transform="translate(0.000000,1022.000000) scale(0.100000,-0.100000)"
fill="#000000" stroke="none">
<path d="M0 5125 l0 -5095 3808 0 c3758 0 3807 0 3839 20 18 10 39 33 48 49
13 27 15 537 15 5043 0 4980 0 5013 -20 5046 l-20 32 -3835 0 -3835 0 0 -5095z
m1658 4433 c6 -6 12 -17 12 -24 0 -19 -26 -18 -34 2 -10 25 -49 13 -60 -18
-13 -38 3 -82 32 -86 13 -2 25 3 28 12 8 20 34 21 34 1 0 -18 -31 -35 -63 -35
-36 0 -60 33 -60 82 0 70 60 106 111 66z m-584 -25 l18 -38 19 38 c11 20 27
37 35 37 13 0 11 -9 -10 -46 -14 -26 -26 -62 -26 -80 0 -24 -5 -34 -15 -34
-10 0 -15 10 -15 29 0 16 -11 49 -25 72 -28 50 -30 59 -12 59 7 0 21 -17 31
-37z m1506 -33 l0 -70 35 0 c19 0 35 -4 35 -10 0 -5 -22 -10 -50 -10 l-50 0 0
80 c0 64 3 80 15 80 12 0 15 -14 15 -70z m-1316 -2 c16 -44 -3 -82 -40 -86
-55 -5 -82 48 -51 99 19 31 79 23 91 -13z m58 -15 c2 -36 7 -49 21 -51 14 -3
17 4 17 47 0 39 4 51 15 51 12 0 15 -13 15 -60 l0 -60 -38 0 c-21 0 -43 5 -50
12 -18 18 -16 108 2 108 11 0 16 -14 18 -47z m158 38 c0 -5 -9 -11 -20 -14
-16 -4 -20 -14 -20 -51 0 -34 -4 -46 -15 -46 -12 0 -15 13 -15 60 l0 60 35 0
c19 0 35 -4 35 -9z m304 -7 c21 -20 20 -63 -1 -86 -22 -24 -69 -24 -83 1 -14
26 -13 74 2 89 17 17 64 15 82 -4z m204 -46 c2 -36 -1 -58 -8 -58 -5 0 -10 17
-10 38 0 45 -13 67 -34 59 -11 -5 -16 -19 -16 -52 0 -33 -4 -45 -15 -45 -11 0
-15 12 -15 50 0 43 -3 50 -20 50 -17 0 -20 -7 -20 -50 0 -38 -4 -50 -15 -50
-12 0 -15 13 -15 60 l0 60 83 -3 82 -2 3 -57z m126 30 c16 -45 -3 -82 -42 -86
-27 -3 -32 -7 -32 -28 0 -16 -5 -24 -12 -22 -9 3 -14 32 -16 87 l-3 82 48 -3
c42 -3 49 -6 57 -30z m114 20 c7 -7 12 -34 12 -60 l0 -48 -44 0 c-50 0 -61 10
-52 45 4 16 16 26 36 30 16 4 30 11 30 16 0 13 -38 11 -42 -3 -2 -6 -10 -8
-17 -4 -9 6 -9 11 0 22 14 17 61 18 77 2z m130 -50 c4 -69 -13 -78 -21 -13 -5
52 -10 60 -32 52 -10 -5 -15 -20 -15 -52 0 -33 -4 -45 -15 -45 -12 0 -15 13
-15 61 l0 60 48 -3 47 -3 3 -57z m58 21 l12 -34 11 28 c6 16 11 33 11 38 0 5
7 9 16 9 17 0 15 -11 -20 -99 -21 -54 -48 -82 -63 -67 -4 4 1 14 12 22 20 15
20 13 -13 128 -9 34 21 12 34 -25z m354 9 c13 -25 13 -31 0 -55 -11 -20 -25
-29 -46 -31 -37 -4 -57 17 -57 58 0 41 20 62 57 58 21 -2 35 -11 46 -30z m130
-36 c0 -57 -4 -72 -20 -87 -16 -15 -26 -17 -47 -9 -35 12 -30 30 7 26 17 -2
30 1 30 7 0 6 -11 11 -24 11 -24 0 -56 32 -56 57 0 6 4 23 10 37 8 23 15 26
55 26 l45 0 0 -68z m114 52 c21 -20 20 -63 -1 -86 -22 -24 -69 -24 -83 1 -14
26 -13 74 2 89 17 17 64 15 82 -4z m2596 -1680 c0 -58 2 -65 15 -54 17 14 85
17 105 5 25 -16 40 -75 40 -165 l0 -90 -30 0 -29 0 -3 101 c-3 84 -6 104 -21
113 -13 8 -24 7 -45 -4 -26 -15 -27 -19 -30 -113 -3 -96 -3 -97 -27 -97 l-25
0 0 185 0 185 25 0 c24 0 25 -2 25 -66z m-4370 31 c33 -17 50 -43 50 -74 0
-32 -46 -29 -54 3 -14 57 -117 51 -124 -6 -3 -29 -6 -27 105 -73 57 -24 75
-47 77 -95 1 -50 -25 -78 -83 -91 -57 -13 -113 3 -145 42 -34 40 -34 69 -1 69
18 0 28 -7 35 -24 17 -47 92 -63 124 -27 35 39 21 54 -105 111 -54 24 -75 60
-64 110 13 61 115 91 185 55z m2064 0 c7 -19 -20 -46 -39 -39 -8 4 -15 17 -15
30 0 19 5 24 24 24 13 0 26 -7 30 -15z m2040 0 c3 -8 -2 -21 -10 -29 -20 -20
-44 -9 -44 20 0 19 5 24 24 24 13 0 26 -7 30 -15z m-3944 -45 c0 -25 4 -30 25
-30 18 0 25 -5 25 -20 0 -15 -7 -20 -25 -20 -24 0 -25 -2 -25 -74 0 -87 5
-106 31 -106 26 0 25 -37 -1 -45 -23 -7 -56 9 -70 35 -5 10 -10 57 -10 104 0
80 -1 85 -22 88 -13 2 -23 10 -23 18 0 8 10 16 23 18 17 3 22 10 22 33 0 24 4
29 25 29 21 0 25 -5 25 -30z m600 0 c0 -23 4 -30 20 -30 13 0 20 -7 20 -20 0
-13 -7 -20 -20 -20 -19 0 -20 -7 -20 -90 0 -83 1 -90 20 -90 13 0 20 -7 20
-19 0 -42 -73 -31 -90 14 -6 15 -10 62 -10 106 0 72 -2 79 -20 79 -13 0 -20 7
-20 20 0 13 7 20 20 20 16 0 20 7 20 30 0 27 3 30 30 30 27 0 30 -3 30 -30z
m3470 0 c0 -25 4 -30 25 -30 18 0 25 -5 25 -20 0 -15 -7 -20 -25 -20 l-26 0 3
-87 c3 -83 4 -88 26 -91 26 -4 30 -37 6 -46 -24 -9 -63 4 -74 24 -6 10 -10 59
-10 109 0 90 0 91 -25 91 -18 0 -25 5 -25 20 0 15 7 20 25 20 21 0 25 5 25 30
0 25 4 30 25 30 21 0 25 -5 25 -30z m-3796 -57 c20 -33 24 -57 25 -145 1 -87
1 -88 -24 -88 -14 0 -25 4 -25 9 0 6 -16 3 -36 -5 -80 -33 -148 31 -118 111 9
24 58 45 104 45 32 0 40 4 40 18 0 43 -57 57 -87 22 -21 -24 -63 -27 -63 -5 0
23 47 63 78 67 42 5 94 -9 106 -29z m204 28 c22 -13 10 -46 -18 -49 -45 -7
-50 -19 -50 -118 0 -94 0 -94 -25 -94 l-25 0 0 130 0 130 40 -2 c22 -1 43 2
47 5 8 9 15 9 31 -2z m724 -13 c51 -26 69 -151 29 -207 -24 -34 -77 -53 -122
-44 -16 3 -43 21 -60 41 -29 33 -31 39 -27 98 3 50 9 69 28 89 39 41 99 50
152 23z m486 13 c22 -13 10 -46 -18 -49 -45 -7 -50 -19 -50 -118 0 -94 0 -94
-25 -94 l-25 0 0 130 0 130 40 -2 c22 -1 43 2 47 5 8 9 15 9 31 -2z m449 -17
c58 -36 71 -158 23 -209 -82 -87 -204 -31 -205 95 0 112 92 170 182 114z m491
-7 c3 -24 0 -27 -27 -27 -42 0 -51 -23 -51 -124 0 -85 0 -86 -25 -86 l-25 0 0
130 0 130 25 0 c14 0 25 -4 25 -9 0 -6 12 -3 28 5 35 18 46 14 50 -19z m228
-4 c9 -13 13 -51 14 -125 l0 -108 -25 0 c-25 0 -25 0 -25 94 0 73 -4 98 -16
110 -20 21 -43 20 -66 -1 -15 -13 -18 -32 -18 -110 l0 -93 -30 0 -30 0 0 130
0 130 25 0 c14 0 25 -4 25 -9 0 -5 17 -3 37 4 42 15 88 5 109 -22z m242 17
c12 0 42 -73 42 -102 l0 -38 -85 0 c-47 0 -85 -4 -85 -9 0 -4 9 -20 21 -35 24
-30 58 -34 94 -10 20 13 28 14 40 4 20 -16 4 -37 -44 -57 -57 -24 -129 3 -151
58 -19 45 -8 134 20 164 29 31 75 44 115 33 16 -4 31 -8 33 -8z m1879 -12 c11
-11 23 -28 26 -39 7 -27 -44 -26 -61 1 -14 22 -51 27 -70 8 -23 -23 -12 -37
40 -53 28 -8 62 -25 75 -37 64 -60 -20 -144 -119 -117 -41 11 -74 49 -64 74 8
22 44 18 51 -5 13 -40 90 -40 90 -1 0 20 -9 27 -54 42 -69 24 -81 35 -81 73 0
74 107 108 167 54z m-4112 -65 l28 -88 27 85 c23 77 28 85 53 88 15 2 27 -1
27 -7 0 -25 -109 -313 -125 -331 -24 -26 -85 -28 -85 -2 0 10 12 22 30 29 51
19 52 45 8 168 -57 155 -55 145 -21 145 28 0 30 -4 58 -87z m485 -4 c0 -50 5
-99 10 -110 13 -23 47 -25 78 -3 20 14 22 23 22 110 0 94 0 94 25 94 l25 0 0
-130 0 -130 -25 0 c-14 0 -25 5 -25 11 0 8 -5 7 -15 -1 -9 -7 -34 -13 -57 -13
-33 0 -47 6 -65 27 -21 25 -23 37 -23 132 l0 104 25 0 c25 0 25 -1 25 -91z
m550 -71 c0 -182 -5 -198 -67 -198 -26 0 -33 4 -33 19 0 12 9 21 25 25 l25 6
0 155 0 155 25 0 25 0 0 -162z m390 64 c0 -104 7 -122 46 -122 44 0 54 24 54
126 0 94 0 94 25 94 l25 0 0 -131 0 -131 -32 4 c-18 3 -45 2 -61 -3 -35 -10
-84 7 -99 34 -12 24 -24 187 -15 211 4 9 18 16 32 16 l25 0 0 -98z m947 11
l29 -87 28 87 c24 79 29 87 51 87 14 0 25 -6 25 -12 0 -31 -103 -305 -122
-325 -27 -29 -78 -32 -78 -4 0 11 9 21 24 25 13 3 29 18 35 33 10 25 6 44 -34
152 -25 69 -45 126 -45 128 0 2 13 3 29 3 28 0 31 -4 58 -87z m338 11 c10 -41
22 -77 26 -79 3 -3 17 31 30 75 20 70 26 80 46 80 19 0 26 -11 49 -87 l28 -88
12 45 c7 25 18 64 24 88 9 35 15 42 35 42 14 0 25 -3 25 -6 0 -5 -32 -118 -66
-236 -3 -10 -15 -18 -28 -18 -19 0 -26 12 -51 88 l-29 87 -26 -85 c-24 -75
-29 -85 -50 -85 -26 0 -28 5 -78 183 l-20 72 27 0 c25 0 28 -5 46 -76z m365
-54 l0 -130 -25 0 -25 0 0 130 0 130 25 0 25 0 0 -130z m652 36 c4 -99 15
-126 51 -126 45 0 57 26 57 127 0 93 0 93 25 93 l25 0 0 -129 0 -130 -52 -1
c-103 -2 -112 0 -132 20 -18 17 -21 36 -24 130 l-4 110 25 0 c24 0 25 -2 29
-94z m526 -144 c-2 -10 -15 -18 -31 -20 -23 -3 -27 0 -27 22 0 13 6 26 13 29
19 7 49 -13 45 -31z m-5308 -393 c0 -5 -7 -9 -15 -9 -15 0 -20 12 -9 23 8 8
24 -1 24 -14z m840 -4 c0 -21 5 -25 30 -25 36 0 50 -23 50 -79 0 -30 -4 -41
-15 -41 -11 0 -15 12 -15 45 0 33 -5 47 -16 52 -21 8 -34 -14 -34 -59 0 -21
-4 -38 -10 -38 -6 0 -10 35 -10 85 0 50 4 85 10 85 6 0 10 -11 10 -25z m670
-60 c0 -50 -4 -85 -10 -85 -6 0 -10 35 -10 85 0 50 4 85 10 85 6 0 10 -35 10
-85z m130 0 l0 -85 -38 0 c-47 0 -62 14 -62 60 0 42 14 60 47 60 18 0 23 6 23
25 0 16 6 25 15 25 12 0 15 -16 15 -85z m46 63 c-3 -13 -6 -27 -6 -31 0 -5 -4
-5 -10 -2 -17 10 -12 55 6 55 12 0 15 -6 10 -22z m204 -3 c0 -21 5 -25 28 -25
38 0 52 -17 52 -61 0 -45 -15 -59 -63 -57 l-37 1 0 84 c0 49 4 83 10 83 6 0
10 -11 10 -25z m1380 4 c0 -5 -7 -9 -15 -9 -15 0 -20 12 -9 23 8 8 24 -1 24
-14z m440 -1 c-21 -20 -22 -23 -7 -26 21 -4 23 -22 2 -22 -11 0 -15 -12 -15
-50 0 -27 -4 -50 -10 -50 -5 0 -10 22 -10 49 0 30 -5 52 -12 55 -10 5 -10 7 0
12 6 3 12 14 12 23 0 24 9 31 39 31 l25 0 -24 -22z m150 12 c0 -5 -7 -10 -15
-10 -18 0 -20 -26 -2 -34 10 -5 10 -7 0 -12 -8 -3 -13 -25 -13 -55 0 -37 -4
-49 -15 -49 -11 0 -15 12 -15 49 0 30 -5 51 -12 54 -10 4 -10 8 -2 14 6 4 14
18 18 31 5 15 15 22 32 22 13 0 24 -4 24 -10z m350 -75 c0 -69 -3 -85 -15 -85
-12 0 -15 16 -15 85 0 69 3 85 15 85 12 0 15 -16 15 -85z m980 -1 l0 -85 -47
3 c-42 3 -49 6 -57 31 -16 44 3 81 42 85 26 3 32 7 32 28 0 15 6 24 15 24 12
0 15 -16 15 -86z m-5260 56 c28 -28 27 -87 -2 -117 -15 -16 -33 -23 -60 -23
l-38 0 0 80 0 80 40 0 c27 0 47 -7 60 -20z m850 -4 c0 -8 6 -17 13 -20 10 -5
10 -7 0 -12 -15 -7 -18 -84 -3 -84 6 0 10 -5 10 -11 0 -6 -10 -9 -22 -7 -19 2
-24 10 -26 48 -2 24 -9 48 -15 53 -9 7 -9 10 1 14 6 2 12 11 12 19 0 8 7 14
15 14 8 0 15 -6 15 -14z m1480 0 c0 -8 6 -17 13 -20 10 -5 10 -7 0 -12 -15 -7
-18 -84 -3 -84 6 0 10 -4 10 -10 0 -5 -8 -10 -19 -10 -20 0 -31 25 -31 72 0
14 -6 29 -12 32 -10 5 -10 7 0 12 6 3 12 12 12 20 0 8 7 14 15 14 8 0 15 -6
15 -14z m1070 0 c0 -8 6 -17 13 -20 10 -5 10 -7 0 -12 -15 -7 -18 -84 -3 -84
6 0 10 -4 10 -10 0 -16 -37 -11 -44 6 -3 9 -6 31 -6 49 0 18 -6 36 -12 39 -10
5 -10 7 0 12 6 3 12 12 12 20 0 8 7 14 15 14 8 0 15 -6 15 -14z m-3330 -76 c0
-47 -3 -60 -15 -60 -12 0 -15 13 -15 60 0 47 3 60 15 60 12 0 15 -13 15 -60z
m117 45 c7 -21 -4 -32 -19 -17 -7 7 -18 12 -25 12 -22 0 -14 -20 11 -30 31
-11 39 -25 31 -50 -9 -28 -70 -28 -85 0 -8 16 -8 20 4 20 8 0 18 -4 21 -10 9
-15 35 -12 35 4 0 8 -10 16 -21 18 -27 4 -44 30 -36 52 8 22 75 22 84 1z m111
3 c16 -16 15 -28 -3 -28 -8 0 -15 5 -15 10 0 18 -29 11 -40 -10 -8 -14 -8 -26
0 -40 11 -21 40 -28 40 -10 0 6 7 10 15 10 18 0 19 -12 3 -28 -19 -19 -66 -15
-78 7 -14 26 -13 74 2 89 7 7 24 12 38 12 14 0 31 -5 38 -12z m132 -20 c13
-25 13 -31 0 -55 -11 -20 -25 -29 -46 -31 -37 -4 -57 17 -57 58 0 41 20 62 57
58 21 -2 35 -11 46 -30z m56 -9 l12 -34 11 28 c6 16 11 33 11 38 0 5 7 9 16 9
11 0 14 -6 8 -22 -21 -68 -32 -92 -42 -96 -11 -3 -36 47 -49 96 -9 38 18 22
33 -19z m162 29 c7 -7 12 -22 12 -35 0 -20 -5 -23 -36 -23 -24 0 -34 -4 -31
-12 2 -8 18 -12 36 -10 23 2 32 -2 29 -10 -7 -21 -70 -22 -85 -2 -16 21 -17
58 -3 85 12 22 59 26 78 7z m102 3 c0 -5 -9 -11 -20 -14 -16 -4 -20 -14 -20
-51 0 -34 -4 -46 -15 -46 -12 0 -15 13 -15 60 l0 60 35 0 c19 0 35 -4 35 -9z
m348 -3 c7 -7 12 -22 12 -35 0 -20 -5 -23 -41 -23 -36 0 -40 -2 -29 -15 10
-11 22 -14 44 -9 27 6 29 5 17 -10 -17 -20 -65 -21 -81 -1 -16 19 -15 71 1 91
14 17 61 18 77 2z m112 -20 l13 -33 10 33 c13 43 33 41 48 -5 l13 -38 9 38 c5
20 15 37 22 37 10 0 10 -12 -3 -60 -9 -33 -22 -60 -28 -60 -7 0 -18 17 -25 38
l-12 37 -12 -35 c-6 -19 -18 -35 -25 -35 -12 0 -39 72 -40 103 0 24 18 12 30
-20z m234 16 c21 -20 20 -63 -1 -86 -22 -24 -69 -24 -83 1 -14 26 -13 74 2 89
17 17 64 15 82 -4z m96 7 c0 -5 -7 -11 -15 -15 -10 -4 -15 -20 -15 -51 0 -33
-4 -45 -15 -45 -12 0 -15 13 -15 60 l0 60 30 0 c17 0 30 -4 30 -9z m317 -6 c7
-21 -4 -32 -19 -17 -7 7 -18 12 -25 12 -22 0 -14 -20 11 -30 31 -11 39 -25 31
-50 -9 -28 -70 -28 -85 0 -8 16 -8 20 4 20 8 0 18 -4 21 -10 9 -15 35 -12 35
4 0 8 -10 16 -21 18 -27 4 -44 30 -36 52 8 22 75 22 84 1z m291 3 c7 -7 12
-22 12 -35 0 -20 -5 -23 -36 -23 -24 0 -34 -4 -31 -12 2 -8 18 -12 36 -10 23
2 32 -2 29 -10 -7 -21 -70 -22 -85 -2 -16 21 -17 58 -3 85 12 22 59 26 78 7z
m119 -3 c8 -23 -2 -28 -26 -14 -11 7 -23 10 -27 7 -10 -11 6 -28 26 -28 26 0
45 -36 29 -56 -14 -17 -60 -19 -77 -2 -16 16 -15 28 3 28 8 0 15 -4 15 -10 0
-5 9 -10 20 -10 31 0 23 18 -15 34 -36 15 -44 33 -23 54 17 17 67 15 75 -3z
m253 -5 c8 -15 8 -20 -3 -20 -7 0 -18 5 -24 11 -19 19 -43 2 -43 -31 0 -33 24
-50 43 -31 6 6 17 11 24 11 11 0 11 -5 3 -20 -23 -43 -100 -12 -100 40 0 52
77 83 100 40z m114 4 c21 -20 20 -63 -1 -86 -22 -24 -69 -24 -83 1 -14 26 -13
74 2 89 17 17 64 15 82 -4z m204 -46 c2 -34 -1 -58 -7 -58 -5 0 -11 21 -13 48
-3 39 -6 47 -23 47 -17 0 -20 -8 -23 -47 -2 -34 -7 -48 -18 -48 -10 0 -14 13
-14 51 0 43 -3 50 -17 47 -14 -2 -19 -15 -21 -51 -2 -33 -7 -47 -18 -47 -11 0
-14 14 -14 60 l0 60 83 -2 82 -3 3 -57z m194 48 c4 -6 8 -32 8 -58 0 -36 -4
-48 -15 -48 -11 0 -15 12 -15 51 0 43 -3 50 -17 47 -14 -2 -19 -15 -21 -51 -4
-65 -30 -65 -34 1 -3 39 -6 47 -23 47 -17 0 -20 -8 -23 -47 -4 -69 -22 -59
-22 12 l0 59 78 -1 c45 0 80 -5 84 -12z m60 -33 c3 -40 6 -48 23 -48 17 0 20
8 23 48 4 68 22 58 22 -13 l0 -60 -40 0 c-34 0 -42 4 -50 26 -15 39 -13 94 4
94 11 0 16 -14 18 -47z m188 28 c16 -31 13 -101 -5 -101 -11 0 -15 12 -15 45
0 33 -5 47 -16 52 -21 8 -34 -14 -34 -59 0 -21 -4 -38 -10 -38 -6 0 -10 26
-10 58 l0 59 40 1 c30 1 42 -3 50 -17z m60 -41 c0 -47 -3 -60 -15 -60 -12 0
-15 13 -15 60 0 47 3 60 15 60 12 0 15 -13 15 -60z m126 19 l12 -34 11 28 c6
16 11 33 11 38 0 5 7 9 16 9 17 0 15 -11 -20 -99 -21 -54 -48 -82 -63 -67 -4
4 1 14 12 22 20 15 20 13 -13 128 -9 34 21 12 34 -25z m234 9 c13 -25 13 -31
0 -55 -11 -20 -25 -29 -46 -31 -37 -4 -57 17 -57 58 0 41 20 62 57 58 21 -2
35 -11 46 -30z m300 23 c0 -5 -7 -11 -15 -15 -10 -4 -15 -20 -15 -51 0 -33 -4
-45 -15 -45 -12 0 -15 13 -15 60 l0 60 30 0 c17 0 30 -4 30 -9z m98 -3 c7 -7
12 -22 12 -35 0 -20 -5 -23 -36 -23 -24 0 -34 -4 -31 -12 2 -8 18 -12 36 -10
23 2 32 -2 29 -10 -7 -21 -70 -22 -85 -2 -16 21 -17 58 -3 85 12 22 59 26 78
7z m120 0 c7 -7 12 -22 12 -35 0 -20 -5 -23 -36 -23 -24 0 -34 -4 -31 -12 2
-8 18 -12 36 -10 23 2 32 -2 29 -10 -7 -21 -70 -22 -85 -2 -16 21 -17 58 -3
85 12 22 59 26 78 7z m176 -4 c3 -9 6 -35 6 -58 0 -43 0 -43 -39 -44 -67 -3
-83 48 -21 69 16 6 30 15 30 20 0 13 -24 11 -38 -3 -15 -15 -26 -4 -19 17 9
21 73 20 81 -1z m124 -46 c2 -34 -1 -58 -7 -58 -5 0 -11 21 -13 48 -3 39 -6
47 -23 47 -17 0 -20 -8 -23 -47 -2 -34 -7 -48 -18 -48 -11 0 -14 14 -14 61 l0
60 48 -3 47 -3 3 -57z m120 50 c16 -16 15 -28 -3 -28 -8 0 -15 5 -15 10 0 6
-9 10 -19 10 -22 0 -35 -30 -26 -60 6 -20 45 -29 45 -10 0 6 7 10 15 10 18 0
19 -12 3 -28 -17 -17 -63 -15 -78 4 -8 8 -13 28 -13 44 0 16 5 36 13 44 15 19
61 21 78 4z m122 -7 c20 -39 13 -51 -31 -51 -28 0 -39 -4 -36 -12 2 -7 18 -12
36 -11 42 2 36 -21 -6 -25 -32 -3 -63 25 -63 58 0 51 77 83 100 41z m90 10 c0
-5 -9 -11 -20 -14 -16 -4 -20 -14 -20 -51 0 -34 -4 -46 -15 -46 -12 0 -15 13
-15 60 l0 60 35 0 c19 0 35 -4 35 -9z m97 -6 c8 -23 -2 -28 -26 -14 -11 7 -23
10 -27 7 -10 -11 6 -28 26 -28 26 0 45 -36 29 -56 -14 -17 -60 -19 -77 -2 -16
16 -15 28 3 28 8 0 15 -4 15 -10 0 -5 9 -10 20 -10 31 0 23 18 -15 34 -36 15
-44 33 -23 54 17 17 67 15 75 -3z m171 3 c7 -7 12 -34 12 -60 l0 -48 -44 0
c-50 0 -61 10 -52 45 4 16 16 26 36 30 16 4 30 11 30 16 0 13 -38 11 -42 -3
-2 -6 -10 -8 -17 -4 -9 6 -9 11 0 22 14 17 61 18 77 2z m-5198 -283 c0 -21 5
-25 28 -25 38 0 52 -17 52 -61 0 -45 -15 -59 -63 -57 l-37 1 0 84 c0 49 4 83
10 83 6 0 10 -11 10 -25z m370 4 c0 -5 -7 -9 -15 -9 -15 0 -20 12 -9 23 8 8
24 -1 24 -14z m-238 -76 c2 -36 7 -49 21 -51 14 -3 17 4 17 47 0 39 4 51 15
51 12 0 15 -13 15 -60 l0 -60 -38 0 c-21 0 -43 5 -50 12 -18 18 -16 108 2 108
11 0 16 -14 18 -47z m176 35 c16 -16 15 -28 -3 -28 -8 0 -15 5 -15 10 0 6 -9
10 -20 10 -30 0 -24 -17 10 -29 35 -12 47 -35 30 -56 -15 -18 -61 -20 -78 -3
-16 16 -15 28 3 28 8 0 15 -4 15 -10 0 -5 9 -10 20 -10 30 0 24 20 -9 31 -34
12 -46 35 -30 55 14 17 61 18 77 2z m62 -48 c0 -47 -3 -60 -15 -60 -12 0 -15
13 -15 60 0 47 3 60 15 60 12 0 15 -13 15 -60z m118 -2 c2 -34 -1 -58 -7 -58
-5 0 -11 21 -13 48 -3 39 -6 47 -23 47 -17 0 -20 -8 -23 -47 -2 -34 -7 -48
-18 -48 -11 0 -14 14 -14 61 l0 60 48 -3 47 -3 3 -57z m120 50 c7 -7 12 -22
12 -35 0 -20 -5 -23 -41 -23 -36 0 -40 -2 -29 -15 10 -11 22 -14 44 -9 27 6
29 5 17 -10 -17 -20 -65 -21 -81 -1 -16 19 -15 71 1 91 14 17 61 18 77 2z
m119 -3 c7 -21 -4 -32 -19 -17 -7 7 -18 12 -25 12 -22 0 -14 -20 11 -30 31
-11 39 -25 31 -50 -9 -28 -70 -28 -85 0 -8 16 -8 20 4 20 8 0 18 -4 21 -10 9
-15 35 -12 35 4 0 8 -10 16 -21 18 -27 4 -44 30 -36 52 8 22 75 22 84 1z m110
0 c8 -23 -2 -28 -26 -14 -11 7 -23 10 -27 7 -10 -11 6 -28 26 -28 26 0 45 -36
29 -56 -14 -17 -60 -19 -77 -2 -16 16 -15 28 3 28 8 0 15 -4 15 -10 0 -5 9
-10 20 -10 31 0 23 18 -15 34 -36 15 -44 33 -23 54 17 17 67 15 75 -3z m187
-17 c16 -44 -3 -82 -40 -86 -55 -5 -82 48 -51 99 19 31 79 23 91 -13z m51 2
c4 -16 10 -30 15 -30 4 0 10 14 14 30 3 17 12 30 20 30 8 0 17 -13 21 -30 4
-16 10 -30 15 -30 4 0 10 14 14 30 3 17 12 30 20 30 11 0 11 -10 -4 -57 -20
-66 -38 -73 -55 -23 l-12 35 -12 -37 c-7 -21 -18 -38 -25 -38 -6 0 -19 27 -28
60 -13 48 -13 60 -3 60 7 0 16 -13 20 -30z m239 14 c3 -9 6 -36 6 -60 0 -32
-4 -44 -15 -44 -11 0 -15 12 -15 51 0 43 -3 50 -17 47 -14 -2 -19 -15 -21 -51
-2 -33 -7 -47 -18 -47 -11 0 -14 14 -14 60 l0 60 44 0 c31 0 46 -5 50 -16z
m123 -13 c16 -33 9 -41 -33 -41 -24 0 -34 -4 -31 -12 2 -7 18 -12 36 -11 41 2
36 -21 -6 -25 -37 -4 -63 19 -63 55 0 60 72 84 97 34z m93 20 c0 -5 -9 -11
-20 -14 -16 -4 -20 -14 -20 -51 0 -34 -4 -46 -15 -46 -12 0 -15 13 -15 60 l0
60 35 0 c19 0 35 -4 35 -9z m97 -6 c7 -21 -4 -32 -19 -17 -7 7 -18 12 -25 12
-22 0 -14 -20 11 -30 31 -11 39 -25 31 -50 -9 -28 -70 -28 -85 0 -8 16 -8 20
4 20 8 0 18 -4 21 -10 9 -15 35 -12 35 4 0 8 -10 16 -21 18 -27 4 -44 30 -36
52 8 22 75 22 84 1z m55 -90 c0 -5 -5 -11 -11 -13 -6 -2 -11 4 -11 13 0 9 5
15 11 13 6 -2 11 -8 11 -13z m1967 -2452 c13 -11 13 -13 -1 -13 -9 0 -20 10
-24 23 l-7 22 -10 -22 c-6 -13 -16 -23 -23 -23 -8 0 -4 9 9 24 17 19 25 22 32
13 6 -7 16 -18 24 -24z m-84 -33 c10 -11 16 -20 13 -20 -3 0 -13 9 -23 20 -10
11 -16 20 -13 20 3 0 13 -9 23 -20z m125 17 c0 -2 -10 -12 -22 -23 l-23 -19
19 23 c18 21 26 27 26 19z m-57 -64 c3 -5 -5 -8 -18 -8 -13 0 -21 3 -18 8 2 4
10 7 18 7 8 0 16 -3 18 -7z m-3203 -509 c0 -19 4 -25 15 -20 32 12 45 -5 45
-55 0 -27 -4 -49 -10 -49 -5 0 -10 17 -10 38 0 43 -6 53 -26 45 -9 -3 -14 -20
-14 -44 0 -21 -4 -39 -10 -39 -6 0 -10 32 -10 75 0 43 4 75 10 75 6 0 10 -12
10 -26z m1170 -49 l0 -75 -33 0 c-40 0 -57 15 -57 51 0 34 26 62 51 56 15 -4
19 0 19 19 0 13 5 24 10 24 6 0 10 -32 10 -75z m360 49 c0 -19 4 -25 15 -20
32 12 45 -5 45 -55 0 -27 -4 -49 -10 -49 -5 0 -10 17 -10 38 0 43 -6 53 -26
45 -9 -3 -14 -20 -14 -44 0 -21 -4 -39 -10 -39 -6 0 -10 32 -10 75 0 43 4 75
10 75 6 0 10 -12 10 -26z m695 -50 l0 -69 -39 0 c-34 0 -41 4 -49 28 -12 36
15 81 44 74 15 -4 19 0 19 20 0 15 5 23 13 21 8 -3 12 -27 12 -74z m505 1 c0
-60 -3 -75 -15 -75 -12 0 -15 14 -15 68 0 38 3 72 7 75 17 18 23 1 23 -68z
m120 66 c0 -5 -6 -11 -12 -14 -10 -3 -10 -7 1 -20 9 -11 10 -17 2 -17 -6 0
-11 -18 -11 -45 0 -32 -4 -45 -14 -45 -20 0 -26 98 -8 128 14 22 42 31 42 13z
m810 -17 c0 -20 4 -24 19 -19 28 9 51 -20 51 -66 0 -28 -4 -39 -15 -39 -11 0
-15 11 -15 38 0 21 -3 42 -7 45 -13 13 -33 -16 -33 -49 0 -19 -4 -34 -10 -34
-6 0 -10 32 -10 75 0 43 4 75 10 75 6 0 10 -12 10 -26z m880 1 c0 -14 -4 -25
-10 -25 -5 0 -10 11 -10 25 0 14 5 25 10 25 6 0 10 -11 10 -25z m-4570 5 c0
-5 -11 -10 -25 -10 -24 0 -25 -3 -25 -60 0 -33 -4 -60 -10 -60 -6 0 -10 27
-10 60 0 53 -2 60 -20 60 -11 0 -20 5 -20 10 0 6 25 10 55 10 30 0 55 -4 55
-10z m140 0 c0 -5 -4 -10 -10 -10 -5 0 -10 5 -10 10 0 6 5 10 10 10 6 0 10 -4
10 -10z m256 -7 c20 -20 1 -32 -21 -13 -16 13 -45 7 -45 -9 0 -6 11 -13 24
-17 67 -17 68 -84 1 -84 -24 0 -37 6 -45 20 -9 16 -8 20 5 20 8 0 15 -4 15
-10 0 -5 11 -10 25 -10 36 0 31 24 -10 43 -26 12 -35 23 -35 41 0 38 55 50 86
19z m113 -51 c13 -34 21 -65 17 -69 -4 -5 -12 0 -17 10 -13 22 -69 24 -69 2 0
-8 -7 -15 -16 -15 -11 0 -14 5 -9 18 4 9 16 41 27 70 11 29 25 51 31 49 7 -2
23 -31 36 -65z m128 -1 c24 -63 23 -92 -1 -58 -7 9 -23 17 -36 17 -13 0 -29
-8 -36 -17 -20 -28 -26 -10 -10 33 42 116 48 118 83 25z m121 57 c16 -16 15
-28 -3 -28 -8 0 -15 5 -15 10 0 6 -9 10 -20 10 -33 0 -23 -29 15 -44 36 -16
46 -41 23 -64 -17 -17 -63 -15 -78 3 -17 21 -7 29 18 14 26 -16 59 -5 43 15
-7 8 -23 17 -36 20 -28 7 -42 41 -25 61 15 18 61 20 78 3z m2042 2 c0 -5 -4
-10 -10 -10 -5 0 -10 5 -10 10 0 6 5 10 10 10 6 0 10 -4 10 -10z m1350 0 c0
-5 -4 -10 -10 -10 -5 0 -10 5 -10 10 0 6 5 10 10 10 6 0 10 -4 10 -10z m220
-40 c0 -38 -4 -50 -15 -50 -11 0 -15 12 -15 50 0 38 4 50 15 50 11 0 15 -12
15 -50z m100 -20 c0 -56 -3 -70 -15 -70 -12 0 -15 14 -15 70 0 56 3 70 15 70
12 0 15 -14 15 -70z m-3002 40 c7 -12 8 -20 2 -20 -14 0 -13 -63 2 -78 9 -9 7
-12 -10 -12 -22 0 -25 6 -35 74 -9 54 16 76 41 36z m3060 0 c7 -12 8 -20 2
-20 -5 0 -10 -16 -10 -35 0 -19 5 -35 10 -35 6 0 10 -4 10 -10 0 -5 -9 -10
-20 -10 -16 0 -20 7 -20 38 0 21 -5 43 -11 49 -8 8 -8 15 2 27 18 20 22 20 37
-4z m-4388 -61 c0 -27 -4 -49 -10 -49 -5 0 -10 25 -10 56 0 34 4 53 10 49 6
-3 10 -28 10 -56z m90 46 c17 -21 7 -29 -19 -16 -11 6 -22 7 -25 2 -3 -5 8
-14 25 -20 24 -8 30 -15 27 -33 -2 -19 -9 -23 -38 -23 -27 0 -36 5 -39 20 -3
17 -1 17 12 6 9 -7 24 -11 34 -9 14 3 11 8 -14 21 -35 18 -41 35 -21 55 17 17
43 15 58 -3z m678 1 c13 -8 16 -54 6 -80 -3 -9 -17 -16 -30 -16 -17 0 -24 -6
-24 -20 0 -11 -7 -20 -15 -20 -12 0 -15 14 -15 68 0 38 2 71 5 74 7 7 59 3 73
-6z m87 4 c3 -5 -4 -14 -15 -20 -14 -8 -20 -21 -20 -45 0 -19 -4 -35 -10 -35
-10 0 -15 92 -5 101 8 9 45 8 50 -1z m83 -6 c41 -28 22 -94 -28 -94 -48 0 -66
54 -30 90 24 24 29 24 58 4z m172 -35 c0 -57 28 -54 32 4 4 58 22 49 26 -13
l3 -50 -39 0 c-27 0 -42 5 -46 16 -8 21 -8 79 0 87 14 13 24 -6 24 -44z m148
39 c7 -7 12 -19 12 -27 0 -11 -4 -11 -19 3 -25 23 -41 13 -41 -25 0 -32 25
-40 49 -16 10 10 12 8 9 -8 -2 -14 -12 -21 -36 -23 -27 -3 -34 1 -42 22 -20
54 32 110 68 74z m313 2 c14 -8 19 -21 19 -55 l0 -45 -39 0 c-57 0 -69 51 -15
64 14 4 22 11 19 17 -5 7 -12 6 -21 -2 -19 -16 -30 -4 -14 16 15 18 24 19 51
5z m105 -4 c24 -18 10 -34 -16 -18 -12 7 -21 8 -25 2 -3 -6 5 -14 18 -19 31
-12 39 -24 31 -46 -10 -24 -68 -16 -72 10 -3 16 -1 18 9 8 15 -15 39 -17 39
-5 0 5 -11 14 -25 20 -27 13 -32 31 -13 50 16 16 30 15 54 -2z m150 3 c4 -7
10 -6 19 1 8 7 23 9 35 5 17 -5 20 -15 20 -56 0 -27 -4 -49 -10 -49 -5 0 -10
18 -10 40 0 33 -3 40 -20 40 -17 0 -20 -7 -20 -40 0 -22 -4 -40 -10 -40 -5 0
-10 15 -10 34 0 33 -20 62 -33 49 -4 -3 -7 -24 -7 -45 0 -27 -4 -38 -15 -38
-11 0 -15 12 -15 48 0 27 2 51 4 53 9 9 66 8 72 -2z m168 -5 c9 -9 16 -32 16
-55 l0 -40 -42 3 c-36 2 -44 7 -46 26 -3 18 3 25 27 33 17 6 28 15 25 20 -3 6
-11 5 -20 -1 -22 -19 -40 -7 -20 13 22 21 40 22 60 1z m207 6 c11 -6 19 -21
19 -35 0 -21 -5 -25 -30 -25 -16 0 -30 -5 -30 -11 0 -7 11 -9 31 -5 22 4 29 2
27 -7 -3 -6 -17 -14 -33 -15 -51 -6 -73 50 -35 88 23 23 25 23 51 10z m155 -1
c4 -7 10 -6 19 1 8 7 23 9 35 5 17 -5 20 -15 20 -56 0 -27 -4 -49 -10 -49 -5
0 -10 18 -10 40 0 33 -3 40 -20 40 -17 0 -20 -7 -20 -40 0 -22 -4 -40 -10 -40
-5 0 -10 15 -10 34 0 33 -20 62 -33 49 -4 -3 -7 -24 -7 -45 0 -27 -4 -38 -15
-38 -11 0 -15 12 -15 48 0 27 2 51 4 53 9 9 66 8 72 -2z m119 -21 l14 -33 11
33 c11 29 30 45 30 24 0 -25 -45 -134 -57 -139 -22 -8 -27 4 -9 22 14 14 14
20 -4 64 -16 42 -17 61 -3 61 2 0 10 -15 18 -32z m185 -23 c0 -30 -4 -55 -10
-55 -5 0 -10 25 -10 55 0 30 5 55 10 55 6 0 10 -25 10 -55z m165 35 c24 -27
13 -50 -25 -50 -20 0 -29 -4 -24 -11 3 -6 17 -9 31 -6 15 3 22 0 20 -7 -5 -16
-46 -20 -63 -6 -30 26 -8 100 30 100 7 0 21 -9 31 -20z m145 5 c17 -21 7 -29
-19 -16 -11 6 -22 7 -25 2 -3 -5 8 -14 25 -20 24 -8 30 -15 27 -33 -2 -19 -9
-23 -38 -23 -27 0 -36 5 -39 20 -3 17 -1 17 12 6 9 -7 24 -11 34 -9 14 3 11 8
-14 21 -35 18 -41 35 -21 55 17 17 43 15 58 -3z m102 -2 c20 -18 24 -63 6 -81
-14 -14 -47 -15 -67 -3 -21 13 -18 71 4 87 24 18 35 18 57 -3z m154 6 c4 -7
10 -6 19 1 8 7 23 9 35 5 17 -5 20 -15 20 -56 0 -27 -4 -49 -10 -49 -5 0 -10
18 -10 40 0 33 -3 40 -20 40 -17 0 -20 -7 -20 -40 0 -22 -4 -40 -10 -40 -5 0
-10 15 -10 34 0 33 -20 62 -33 49 -4 -3 -7 -24 -7 -45 0 -27 -4 -38 -15 -38
-11 0 -15 12 -15 48 0 27 2 51 4 53 9 9 66 8 72 -2z m124 -40 c0 -57 28 -54
32 4 4 58 22 49 26 -13 l3 -50 -39 0 c-27 0 -42 5 -46 16 -8 21 -8 79 0 87 14
13 24 -6 24 -44z m154 35 c21 -21 9 -40 -12 -21 -23 19 -42 11 -42 -19 0 -30
24 -41 46 -23 14 12 16 11 13 -6 -5 -23 -43 -32 -65 -15 -20 18 -18 77 4 89
24 15 38 13 56 -5z m250 0 c9 -8 16 -24 16 -35 0 -15 -7 -19 -36 -19 -22 0
-33 -4 -29 -11 4 -5 18 -9 30 -7 13 2 25 -1 27 -7 4 -15 -51 -18 -68 -4 -22
18 -17 65 8 83 28 20 33 20 52 0z m97 6 c14 -8 19 -21 19 -55 l0 -45 -39 0
c-57 0 -69 51 -15 64 14 4 22 11 19 17 -5 7 -12 6 -21 -2 -19 -16 -30 -4 -14
16 15 18 24 19 51 5z m109 -5 c17 -21 7 -29 -19 -16 -11 6 -22 7 -25 2 -3 -5
8 -14 25 -20 24 -8 30 -15 27 -33 -2 -19 -9 -23 -38 -23 -27 0 -36 5 -39 20
-3 17 -1 17 12 6 9 -7 24 -11 34 -9 14 3 11 8 -14 21 -35 18 -41 35 -21 55 17
17 43 15 58 -3z m50 -40 c0 -30 -4 -55 -10 -55 -5 0 -10 25 -10 55 0 30 5 55
10 55 6 0 10 -25 10 -55z m91 45 c11 -6 19 -21 19 -35 0 -21 -5 -25 -30 -25
-16 0 -30 -5 -30 -11 0 -7 11 -9 31 -5 22 4 29 2 27 -7 -3 -6 -17 -14 -33 -15
-51 -6 -73 50 -35 88 23 23 25 23 51 10z m89 -6 c0 -8 -7 -14 -15 -14 -11 0
-15 -11 -15 -40 0 -22 -4 -40 -10 -40 -5 0 -10 24 -10 53 0 48 2 52 25 53 15
1 25 -3 25 -12z m320 1 c17 -21 7 -29 -19 -16 -11 6 -22 7 -25 2 -3 -5 8 -14
25 -20 24 -8 30 -15 27 -33 -2 -19 -9 -23 -38 -23 -27 0 -36 5 -39 20 -3 17
-1 17 12 6 9 -7 24 -11 34 -9 14 3 11 8 -14 21 -35 18 -41 35 -21 55 17 17 43
15 58 -3z m-280 -85 c0 -5 -7 -10 -15 -10 -8 0 -15 5 -15 10 0 6 7 10 15 10 8
0 15 -4 15 -10z m-3560 -120 c0 -5 -4 -10 -10 -10 -5 0 -10 -4 -10 -10 0 -19
28 -10 33 10 6 25 57 29 57 4 0 -8 -4 -12 -10 -9 -17 11 -32 -5 -19 -21 8 -10
8 -14 0 -14 -6 0 -11 -18 -11 -45 0 -57 -18 -59 -22 -2 -2 29 -8 42 -18 42
-10 0 -16 -13 -18 -42 -2 -24 -7 -43 -12 -43 -15 0 -18 103 -3 128 14 22 43
31 43 12z m905 -66 l0 -69 -39 0 c-34 0 -41 4 -49 28 -12 36 15 81 44 74 15
-4 19 0 19 20 0 15 5 23 13 21 8 -3 12 -27 12 -74z m95 51 c0 -18 4 -23 15
-19 26 10 45 -16 45 -62 0 -24 -4 -44 -10 -44 -5 0 -10 18 -10 40 0 33 -3 40
-20 40 -17 0 -20 -7 -20 -40 0 -22 -4 -40 -10 -40 -6 0 -10 32 -10 75 0 43 4
75 10 75 6 0 10 -11 10 -25z m460 -50 c0 -43 -4 -75 -10 -75 -6 0 -10 32 -10
75 0 43 4 75 10 75 6 0 10 -32 10 -75z m50 0 c0 -60 -3 -75 -15 -75 -12 0 -15
14 -15 68 0 38 3 72 7 75 17 18 23 1 23 -68z m150 49 c0 -19 4 -25 15 -20 32
12 45 -5 45 -55 0 -27 -4 -49 -10 -49 -5 0 -10 17 -10 38 0 43 -6 53 -26 45
-9 -3 -14 -20 -14 -44 0 -21 -4 -39 -10 -39 -6 0 -10 32 -10 75 0 43 4 75 10
75 6 0 10 -12 10 -26z m290 17 c0 -5 -6 -11 -12 -14 -10 -3 -10 -7 0 -19 10
-13 10 -17 -3 -22 -10 -3 -15 -19 -15 -46 0 -58 -17 -49 -22 13 -5 56 11 97
37 97 8 0 15 -4 15 -9z m1190 -66 l0 -75 -33 0 c-40 0 -57 15 -57 51 0 34 26
62 51 56 15 -4 19 0 19 19 0 13 5 24 10 24 6 0 10 -32 10 -75z m-4030 55 c0
-5 -4 -10 -10 -10 -5 0 -10 5 -10 10 0 6 5 10 10 10 6 0 10 -4 10 -10z m320 0
c0 -5 -4 -10 -10 -10 -5 0 -10 5 -10 10 0 6 5 10 10 10 6 0 10 -4 10 -10z
m110 0 c0 -5 -4 -10 -10 -10 -5 0 -10 5 -10 10 0 6 5 10 10 10 6 0 10 -4 10
-10z m690 0 c0 -5 -4 -10 -10 -10 -5 0 -10 5 -10 10 0 6 5 10 10 10 6 0 10 -4
10 -10z m2440 -60 c0 -40 -4 -70 -10 -70 -6 0 -10 30 -10 70 0 40 4 70 10 70
6 0 10 -30 10 -70z m-3392 40 c7 -12 8 -20 2 -20 -14 0 -13 -63 2 -78 9 -9 7
-12 -10 -12 -22 0 -25 6 -35 74 -9 54 16 76 41 36z m210 3 c12 -12 13 -18 4
-21 -16 -5 -16 -69 1 -75 6 -2 9 -8 5 -12 -17 -19 -38 6 -38 45 0 22 -5 40
-10 40 -6 0 -5 8 2 20 15 24 15 24 36 3z m1010 -3 c7 -12 8 -20 2 -20 -5 0
-10 -16 -10 -35 0 -19 5 -35 10 -35 6 0 10 -4 10 -10 0 -5 -9 -10 -20 -10 -16
0 -20 7 -20 38 0 21 -5 43 -11 49 -8 8 -8 15 2 27 18 20 22 20 37 -4z m1109 4
c12 -11 13 -18 4 -27 -14 -14 -14 -50 1 -65 15 -15 4 -26 -17 -19 -10 4 -15
20 -15 47 0 22 -5 40 -10 40 -6 0 -5 8 2 20 15 24 15 24 35 4z m590 0 c12 -11
13 -18 4 -27 -14 -14 -14 -50 1 -65 15 -15 4 -26 -17 -19 -10 4 -15 20 -15 47
0 22 -5 40 -10 40 -6 0 -5 8 2 20 15 24 15 24 35 4z m1051 -4 c7 -12 8 -20 2
-20 -5 0 -10 -16 -10 -35 0 -19 5 -35 10 -35 6 0 10 -4 10 -10 0 -5 -9 -10
-20 -10 -16 0 -20 7 -20 38 0 21 -5 43 -11 49 -8 8 -8 15 2 27 18 20 22 20 37
-4z m-4138 -61 c0 -27 -4 -49 -10 -49 -5 0 -10 25 -10 56 0 34 4 53 10 49 6
-3 10 -28 10 -56z m101 40 c15 -24 11 -89 -6 -89 -11 0 -15 11 -15 38 0 21 -3
42 -7 45 -13 13 -33 -16 -33 -49 0 -19 -4 -34 -10 -34 -10 0 -14 92 -5 102 10
10 67 1 76 -13z m111 -21 c2 -31 8 -44 20 -46 13 -3 17 6 20 40 4 59 22 50 26
-12 l3 -51 -43 3 -43 3 -3 53 c-2 30 1 52 7 52 5 0 11 -19 13 -42z m108 -19
c0 -27 -4 -49 -10 -49 -5 0 -10 25 -10 56 0 34 4 53 10 49 6 -3 10 -28 10 -56z
m110 0 c0 -27 -4 -49 -10 -49 -5 0 -10 25 -10 56 0 34 4 53 10 49 6 -3 10 -28
10 -56z m46 18 l11 -32 12 38 c11 32 31 51 31 29 0 -24 -34 -102 -44 -102 -13
0 -48 95 -38 104 8 9 16 -2 28 -37z m138 27 c9 -8 16 -24 16 -35 0 -15 -7 -19
-36 -19 -22 0 -33 -4 -29 -11 4 -5 18 -9 30 -7 13 2 25 -1 27 -7 4 -15 -51
-18 -68 -4 -22 18 -17 65 8 83 28 20 33 20 52 0z m191 -4 c24 -27 13 -50 -25
-50 -20 0 -29 -4 -24 -11 3 -6 17 -9 31 -6 15 3 22 0 20 -7 -5 -16 -46 -20
-63 -6 -30 26 -8 100 30 100 7 0 21 -9 31 -20z m165 -35 c0 -30 -4 -55 -10
-55 -11 0 -14 93 -3 103 12 12 13 8 13 -48z m91 45 c10 -6 19 -17 19 -25 0
-19 -8 -19 -28 1 -14 15 -17 15 -29 -2 -15 -21 -16 -24 -3 -44 8 -12 13 -13
30 -2 25 15 30 15 30 -2 0 -30 -64 -35 -80 -7 -16 31 -12 59 12 75 27 19 24
19 49 6z m59 -51 c0 -27 -4 -49 -10 -49 -5 0 -10 25 -10 56 0 34 4 53 10 49 6
-3 10 -28 10 -56z m94 45 c9 -8 16 -24 16 -35 0 -15 -7 -19 -36 -19 -22 0 -33
-4 -29 -11 4 -5 18 -9 30 -7 13 2 25 -1 27 -7 4 -15 -51 -18 -68 -4 -22 18
-17 65 8 83 28 20 33 20 52 0z m104 4 c14 -12 16 -98 2 -98 -5 0 -10 18 -10
40 0 33 -3 40 -20 40 -17 0 -20 -7 -20 -40 0 -22 -4 -40 -10 -40 -5 0 -10 24
-10 53 0 50 1 52 28 54 15 1 33 -3 40 -9z m250 0 c7 -7 12 -32 12 -56 l0 -43
-37 3 c-31 2 -39 7 -41 26 -3 18 3 25 28 34 22 7 28 14 21 21 -7 7 -15 6 -26
-3 -8 -7 -19 -10 -23 -6 -8 8 25 36 43 36 6 0 16 -5 23 -12z m110 0 c18 -15
16 -98 -2 -98 -10 0 -16 14 -18 43 -2 23 -7 42 -13 42 -5 0 -11 -19 -13 -42
-2 -29 -8 -43 -18 -43 -10 0 -14 13 -14 48 0 27 2 51 4 53 9 9 62 7 74 -3z
m359 0 c6 -7 13 -32 16 -56 l5 -43 -41 3 c-35 2 -43 7 -45 26 -3 18 3 25 28
34 22 7 28 14 21 21 -7 7 -15 6 -26 -3 -8 -7 -19 -10 -23 -6 -8 9 26 36 44 36
6 0 16 -6 21 -12z m109 -5 c20 -20 2 -32 -20 -13 -10 7 -16 8 -21 0 -3 -5 5
-14 18 -19 14 -6 28 -15 32 -21 10 -16 -14 -40 -40 -40 -26 0 -52 25 -36 34 5
4 12 2 16 -4 8 -12 35 -13 35 -1 0 5 -11 12 -24 15 -30 7 -40 31 -20 51 20 20
39 19 60 -2z m141 5 c6 -7 13 -32 16 -56 l5 -43 -41 3 c-35 2 -43 7 -45 26 -3
18 3 25 28 34 22 7 28 14 21 21 -7 7 -15 6 -26 -3 -8 -7 -19 -10 -23 -6 -8 9
26 36 44 36 6 0 16 -6 21 -12z m414 2 c11 -6 19 -21 19 -35 0 -21 -5 -25 -30
-25 -16 0 -30 -5 -30 -11 0 -7 11 -9 31 -5 22 4 29 2 27 -7 -3 -6 -17 -14 -33
-15 -51 -6 -73 50 -35 88 23 23 25 23 51 10z m226 -20 c15 -31 9 -40 -28 -40
-19 0 -28 -4 -23 -11 3 -6 17 -8 31 -4 18 4 24 2 21 -7 -3 -7 -19 -14 -36 -16
-27 -3 -34 1 -42 22 -24 65 46 117 77 56z m90 18 c6 -7 13 -32 16 -56 l5 -43
-41 3 c-35 2 -43 7 -45 26 -3 18 3 25 28 34 22 7 28 14 21 21 -7 7 -15 6 -26
-3 -8 -7 -19 -10 -23 -6 -8 9 26 36 44 36 6 0 16 -6 21 -12z m123 -33 c0 -38
3 -45 20 -45 17 0 20 7 20 45 0 25 5 45 10 45 6 0 10 -25 10 -56 l0 -55 -37 3
-38 3 -3 53 c-2 31 1 52 7 52 6 0 11 -20 11 -45z m136 32 c4 -4 -1 -9 -10 -13
-11 -4 -16 -18 -16 -45 0 -28 -4 -39 -15 -39 -11 0 -15 12 -15 48 0 27 2 51 5
54 7 6 43 3 51 -5z m75 3 c11 -6 19 -21 19 -35 0 -21 -5 -25 -30 -25 -16 0
-30 -5 -30 -11 0 -7 11 -9 31 -5 22 4 29 2 27 -7 -3 -6 -17 -14 -33 -15 -51
-6 -73 50 -35 88 23 23 25 23 51 10z m105 -4 c24 -18 10 -34 -16 -18 -12 7
-21 8 -25 2 -3 -6 5 -14 18 -19 31 -12 39 -24 31 -46 -10 -24 -68 -16 -72 10
-3 16 -1 18 9 8 15 -15 39 -17 39 -5 0 5 -11 14 -25 20 -27 13 -32 31 -13 50
16 16 30 15 54 -2z m252 2 c14 -12 16 -98 2 -98 -5 0 -10 18 -10 40 0 33 -3
40 -20 40 -17 0 -20 -7 -20 -40 0 -22 -4 -40 -10 -40 -5 0 -10 24 -10 53 0 50
1 52 28 54 15 1 33 -3 40 -9z m107 -8 c24 -27 13 -50 -25 -50 -20 0 -29 -4
-24 -11 3 -6 17 -9 31 -6 15 3 22 0 20 -7 -5 -16 -46 -20 -63 -6 -30 26 -8
100 30 100 7 0 21 -9 31 -20z m99 4 c9 -8 16 -24 16 -35 0 -15 -7 -19 -36 -19
-22 0 -33 -4 -29 -11 4 -5 18 -9 30 -7 13 2 25 -1 27 -7 4 -15 -51 -18 -68 -4
-22 18 -17 65 8 83 28 20 33 20 52 0z m320 0 c19 -18 21 -65 4 -82 -7 -7 -21
-12 -33 -12 -29 0 -45 19 -45 51 0 29 23 59 45 59 7 0 21 -7 29 -16z m136 0
c0 -8 -7 -14 -15 -14 -11 0 -15 -11 -15 -40 0 -22 -4 -40 -10 -40 -5 0 -10 24
-10 54 0 50 1 54 25 54 15 0 25 -6 25 -14z m40 -35 c0 -57 28 -54 32 4 4 58
22 49 26 -13 l3 -50 -39 0 c-27 0 -42 5 -46 16 -8 21 -8 79 0 87 14 13 24 -6
24 -44z m150 42 c6 0 10 -23 10 -51 0 -27 -4 -50 -10 -50 -5 0 -10 17 -10 38
0 43 -6 53 -26 45 -9 -3 -14 -20 -14 -44 0 -21 -4 -39 -10 -39 -5 0 -10 24
-10 53 0 51 0 52 30 51 17 -1 35 -2 40 -3z m218 -4 c14 -9 17 -97 3 -97 -6 0
-11 17 -13 37 -2 27 -8 39 -20 41 -15 3 -18 -4 -18 -37 0 -29 -4 -41 -14 -41
-10 0 -16 14 -18 43 -2 23 -7 42 -13 42 -5 0 -11 -19 -13 -42 -2 -29 -8 -43
-18 -43 -10 0 -14 13 -14 48 0 27 2 51 4 53 8 7 121 4 134 -4z m58 -30 l7 -32
12 34 c11 33 35 55 35 32 0 -6 -12 -40 -26 -76 -21 -52 -30 -65 -48 -65 -20 1
-20 2 -3 14 21 16 22 36 2 82 -15 35 -12 60 5 49 5 -3 12 -20 16 -38z m-4166
-55 c0 -5 -7 -17 -15 -28 -14 -18 -14 -18 -15 9 0 17 5 27 15 27 8 0 15 -4 15
-8z m760 -11 c0 -20 -13 -35 -23 -25 -7 8 4 44 14 44 5 0 9 -9 9 -19z m-1430
-134 c0 -18 5 -23 22 -23 32 1 56 -44 40 -78 -9 -21 -19 -26 -47 -26 l-35 0 0
75 c0 43 4 75 10 75 6 0 10 -10 10 -23z m1360 -2 c0 -18 4 -23 15 -19 26 10
45 -16 45 -62 0 -24 -4 -44 -10 -44 -5 0 -10 18 -10 40 0 33 -3 40 -20 40 -17
0 -20 -7 -20 -40 0 -22 -4 -40 -10 -40 -6 0 -10 32 -10 75 0 43 4 75 10 75 6
0 10 -11 10 -25z m105 -50 c0 -46 -4 -70 -12 -72 -10 -4 -13 15 -13 72 0 57 3
76 13 73 8 -3 12 -27 12 -73z m-1155 55 c0 -5 -4 -10 -10 -10 -5 0 -10 5 -10
10 0 6 5 10 10 10 6 0 10 -4 10 -10z m998 -17 c12 -12 13 -18 4 -21 -16 -5
-16 -69 1 -75 6 -2 9 -8 5 -12 -17 -19 -38 6 -38 45 0 22 -5 40 -10 40 -6 0
-5 8 2 20 15 24 15 24 36 3z m-1198 -54 c0 -57 28 -54 32 4 4 58 22 49 26 -13
l3 -50 -39 0 c-27 0 -42 5 -46 16 -8 21 -8 79 0 87 14 13 24 -6 24 -44z m146
37 c24 -18 10 -34 -16 -18 -12 7 -21 8 -25 2 -3 -6 5 -14 18 -19 31 -12 39
-24 31 -46 -10 -24 -68 -16 -72 10 -3 16 -1 18 9 8 15 -15 39 -17 39 -5 0 5
-11 14 -25 20 -27 13 -32 31 -13 50 16 16 30 15 54 -2z m54 -41 c0 -30 -4 -55
-10 -55 -5 0 -10 25 -10 55 0 30 5 55 10 55 6 0 10 -25 10 -55z m98 43 c18
-15 16 -98 -2 -98 -10 0 -16 14 -18 43 -2 23 -7 42 -13 42 -5 0 -11 -19 -13
-42 -2 -29 -8 -43 -18 -43 -10 0 -14 13 -14 48 0 27 2 51 4 53 9 9 62 7 74 -3z
m107 -8 c24 -27 13 -50 -25 -50 -20 0 -29 -4 -24 -11 3 -6 17 -9 31 -6 15 3
22 0 20 -7 -5 -16 -46 -20 -63 -6 -30 26 -8 100 30 100 7 0 21 -9 31 -20z m95
5 c17 -21 7 -29 -19 -16 -11 6 -22 7 -25 2 -3 -5 8 -14 25 -20 24 -8 30 -15
27 -33 -2 -19 -9 -23 -38 -23 -27 0 -36 5 -39 20 -3 17 -1 17 12 6 9 -7 24
-11 34 -9 14 3 11 8 -14 21 -35 18 -41 35 -21 55 17 17 43 15 58 -3z m100 0
c17 -21 7 -29 -19 -16 -11 6 -22 7 -25 2 -3 -5 8 -14 25 -20 24 -8 30 -15 27
-33 -2 -19 -9 -23 -38 -23 -27 0 -36 5 -39 20 -3 17 -1 17 12 6 9 -7 24 -11
34 -9 14 3 11 8 -14 21 -35 18 -41 35 -21 55 17 17 43 15 58 -3z m146 -2 c20
-20 2 -32 -20 -13 -10 7 -16 8 -21 0 -3 -5 5 -14 18 -19 14 -6 28 -15 32 -21
10 -16 -14 -40 -40 -40 -26 0 -52 25 -36 34 5 4 12 2 16 -4 8 -12 35 -13 35
-1 0 5 -11 12 -24 15 -30 7 -40 31 -20 51 20 20 39 19 60 -2z m100 6 c4 -7 10
-6 19 1 8 7 23 9 35 5 17 -5 20 -15 20 -56 0 -27 -4 -49 -10 -49 -5 0 -10 18
-10 40 0 33 -3 40 -20 40 -17 0 -20 -7 -20 -40 0 -22 -4 -40 -10 -40 -5 0 -10
15 -10 34 0 33 -20 62 -33 49 -4 -3 -7 -24 -7 -45 0 -27 -4 -38 -15 -38 -11 0
-15 12 -15 48 0 27 2 51 4 53 9 9 66 8 72 -2z m159 5 c9 -4 21 -18 26 -32 19
-49 -43 -96 -79 -60 -20 20 -14 65 10 82 26 19 22 18 43 10z m110 0 c9 -4 21
-18 26 -32 19 -49 -43 -96 -79 -60 -20 20 -14 65 10 82 26 19 22 18 43 10z
m286 -31 c7 -23 14 -32 17 -23 15 47 23 61 32 55 13 -8 -31 -125 -52 -139 -24
-14 -36 1 -13 18 17 12 17 15 1 61 -18 56 -20 65 -7 65 5 0 15 -17 22 -37z
m79 -63 c0 -5 -4 -10 -10 -10 -5 0 -10 5 -10 10 0 6 5 10 10 10 6 0 10 -4 10
-10z m-1142 -544 c50 -32 100 -90 125 -145 29 -64 28 -179 -2 -247 -31 -70
-128 -164 -169 -164 -4 0 -13 12 -18 28 -8 22 -5 36 18 81 15 29 28 58 28 65
0 9 -81 66 -94 66 -2 0 -2 -8 1 -19 5 -20 -22 -37 -32 -21 -4 6 -20 10 -36 10
-26 0 -29 3 -24 21 l7 22 -30 -22 c-32 -23 -65 -19 -90 12 -11 13 -8 16 18 22
17 4 54 4 82 0 43 -6 50 -5 45 8 -3 8 1 23 9 34 13 17 14 17 20 -4 6 -21 30
-33 68 -33 33 0 62 59 36 75 -9 6 -172 17 -233 16 -15 0 -25 4 -22 9 4 6 15
10 27 10 15 0 19 5 15 20 -4 15 0 20 16 20 21 1 21 1 -3 22 l-25 20 -3 -21
c-4 -25 -15 -27 -36 -5 -19 18 -21 46 -3 43 6 -2 46 5 89 15 59 14 81 15 98 6
11 -6 29 -8 40 -5 21 7 40 -19 40 -57 0 -13 7 -43 15 -68 l15 -45 -3 88 c-3
68 -8 93 -23 115 -11 15 -24 33 -28 40 -12 20 21 14 62 -12z m572 -20 c0 -21
6 -25 33 -28 32 -3 32 -4 35 -60 2 -34 -1 -58 -7 -58 -5 0 -11 21 -13 48 -3
39 -6 47 -23 47 -17 0 -20 -8 -23 -47 -2 -34 -7 -48 -18 -48 -11 0 -14 18 -14
85 0 69 3 85 15 85 9 0 15 -9 15 -24z m-180 -54 c0 -73 -10 -92 -46 -92 -36 0
-54 11 -54 31 0 23 16 25 28 2 6 -10 16 -14 26 -10 12 5 16 21 16 72 0 51 3
65 15 65 12 0 15 -14 15 -68z m560 48 c28 -28 27 -87 -2 -117 -15 -16 -33 -23
-60 -23 l-38 0 0 80 0 80 40 0 c27 0 47 -7 60 -20z m-432 -52 c19 -41 -2 -82
-45 -86 -32 -3 -63 25 -63 58 0 9 7 26 16 38 23 33 74 27 92 -10z m246 16 c3
-9 6 -36 6 -60 0 -32 -4 -44 -15 -44 -11 0 -15 12 -15 51 0 43 -3 50 -17 47
-14 -2 -19 -15 -21 -51 -2 -33 -7 -47 -18 -47 -11 0 -14 14 -14 60 l0 60 44 0
c31 0 46 -5 50 -16z m324 4 c16 -16 16 -80 0 -96 -17 -17 -64 -15 -82 4 -19
19 -21 57 -4 84 14 23 67 27 86 8z m120 0 c7 -7 12 -22 12 -35 0 -20 -5 -23
-36 -23 -24 0 -34 -4 -31 -12 2 -8 18 -12 36 -10 23 2 32 -2 29 -10 -6 -17
-66 -22 -84 -7 -16 13 -19 62 -4 90 12 22 59 26 78 7z m-1626 -70 c-2 -35 -8
-68 -14 -75 -5 -7 -6 -32 -2 -58 5 -35 10 -45 21 -40 11 4 13 1 9 -10 -3 -9 3
-32 14 -52 17 -32 17 -38 5 -57 -8 -11 -15 -32 -15 -46 0 -21 -6 -17 -35 30
-47 75 -62 144 -47 221 9 47 53 149 65 149 1 0 0 -28 -1 -62z m1118 -239 c0
-5 -7 -9 -15 -9 -15 0 -20 12 -9 23 8 8 24 -1 24 -14z m828 -1 c6 -6 12 -17
12 -24 0 -19 -26 -18 -34 2 -10 25 -49 13 -60 -18 -21 -60 36 -120 64 -69 13
26 30 27 30 3 0 -27 -20 -42 -55 -42 -44 0 -68 29 -68 82 0 70 60 106 111 66z
m-1128 2 c0 -5 -16 -10 -35 -10 -28 0 -35 -4 -35 -20 0 -16 7 -20 30 -20 20 0
30 -5 30 -15 0 -10 -10 -15 -30 -15 -25 0 -30 -4 -30 -25 0 -22 4 -25 40 -25
22 0 40 -4 40 -10 0 -5 -25 -10 -55 -10 l-55 0 0 80 0 80 50 0 c28 0 50 -4 50
-10z m955 -2 c32 -14 53 -77 39 -116 -9 -25 -14 -27 -67 -29 -52 -2 -57 -1
-63 22 -3 13 0 36 8 52 10 21 20 28 43 28 29 0 30 -1 27 -42 -3 -33 0 -43 12
-43 25 0 31 58 9 89 -44 59 -123 21 -123 -59 0 -51 29 -83 70 -78 16 1 31 -2
32 -7 5 -17 -62 -17 -87 -1 -51 34 -50 135 2 176 29 23 60 25 98 8z m1130 -40
l35 -53 0 53 c0 40 4 52 15 52 12 0 15 -16 15 -80 0 -99 -13 -104 -64 -23
l-36 57 0 -57 c0 -44 -3 -57 -15 -57 -12 0 -15 16 -15 80 0 98 13 104 65 28z
m-1967 -50 c2 -47 0 -58 -13 -58 -11 0 -15 12 -15 51 0 43 -3 50 -17 47 -14
-2 -19 -15 -21 -51 -2 -33 -7 -47 -18 -47 -11 0 -14 14 -14 61 l0 60 48 -3 47
-3 3 -57z m132 -3 c0 -52 -4 -69 -20 -85 -23 -23 -50 -26 -68 -8 -20 20 -14
28 17 22 16 -4 32 -1 35 5 5 7 -4 11 -23 11 -32 0 -51 22 -51 60 0 44 18 60
65 60 l45 0 0 -65z m50 5 c0 -47 -3 -60 -15 -60 -12 0 -15 13 -15 60 0 47 3
60 15 60 12 0 15 -13 15 -60z m118 -2 c2 -34 -1 -58 -7 -58 -5 0 -11 21 -13
48 -3 39 -6 47 -23 47 -17 0 -20 -8 -23 -47 -2 -34 -7 -48 -18 -48 -11 0 -14
14 -14 61 l0 60 48 -3 47 -3 3 -57z m120 50 c7 -7 12 -22 12 -35 0 -20 -5 -23
-41 -23 -36 0 -40 -2 -29 -15 10 -11 22 -14 44 -9 27 6 29 5 17 -10 -17 -20
-65 -21 -81 0 -8 8 -13 28 -13 44 0 16 5 36 13 44 15 19 61 21 78 4z m122 -7
c20 -39 13 -51 -31 -51 -28 0 -39 -4 -36 -12 2 -7 18 -12 36 -11 42 2 36 -21
-6 -25 -32 -3 -63 25 -63 58 0 51 77 83 100 41z m90 9 c0 -5 -6 -10 -14 -10
-17 0 -26 -22 -26 -66 0 -19 -4 -34 -10 -34 -6 0 -10 27 -10 60 l0 60 30 0
c17 0 30 -4 30 -10z m508 -2 c16 -16 16 -80 0 -96 -17 -17 -64 -15 -82 4 -19
19 -21 57 -4 84 14 23 67 27 86 8z m200 -50 c2 -34 -1 -58 -7 -58 -5 0 -11 21
-13 48 -3 39 -6 47 -23 47 -17 0 -20 -8 -23 -47 -2 -34 -7 -48 -18 -48 -10 0
-14 13 -14 51 0 43 -3 50 -17 47 -14 -2 -19 -15 -21 -51 -2 -33 -7 -47 -18
-47 -11 0 -14 14 -14 60 l0 60 83 -2 82 -3 3 -57z m120 50 c16 -16 16 -80 0
-96 -7 -7 -25 -12 -40 -12 -23 0 -28 -4 -28 -25 0 -14 -4 -25 -10 -25 -6 0
-10 35 -10 85 l0 85 38 0 c21 0 43 -5 50 -12z m126 -10 c3 -13 7 -39 8 -59 l4
-37 -42 0 c-70 -2 -87 47 -24 71 17 6 30 15 30 19 0 12 -25 9 -38 -4 -15 -15
-26 -4 -19 17 4 9 19 15 41 15 29 0 37 -4 40 -22z m124 -40 c2 -34 -1 -58 -7
-58 -5 0 -11 21 -13 48 -3 39 -6 47 -23 47 -17 0 -20 -8 -23 -47 -2 -34 -7
-48 -18 -48 -11 0 -14 14 -14 61 l0 60 48 -3 47 -3 3 -57z m57 32 c9 -43 22
-45 29 -5 4 21 13 35 21 35 20 0 19 -8 -11 -89 -17 -47 -33 -72 -46 -77 -30
-9 -36 5 -10 25 l23 17 -20 55 c-25 64 -25 69 -7 69 8 0 17 -13 21 -30z m385
11 c5 -11 10 -38 10 -61 l0 -41 -47 3 c-46 3 -48 4 -48 32 0 24 6 31 35 41 28
10 32 14 17 20 -10 4 -24 2 -32 -5 -20 -17 -32 -5 -15 15 18 22 67 19 80 -4z
m198 -43 c2 -34 -1 -58 -7 -58 -5 0 -11 21 -13 48 -3 39 -6 47 -23 47 -17 0
-20 -8 -23 -47 -2 -34 -7 -48 -18 -48 -10 0 -14 13 -14 51 0 43 -3 50 -17 47
-14 -2 -19 -15 -21 -51 -2 -33 -7 -47 -18 -47 -11 0 -14 14 -14 60 l0 60 83
-2 82 -3 3 -57z m120 50 c7 -7 12 -22 12 -35 0 -20 -5 -23 -41 -23 -36 0 -40
-2 -29 -15 10 -11 22 -14 44 -9 27 6 29 5 17 -10 -17 -20 -65 -21 -81 0 -8 8
-13 28 -13 44 0 16 5 36 13 44 15 19 61 21 78 4z m-3125 -25 c-7 -2 -21 -2
-30 0 -10 3 -4 5 12 5 17 0 24 -2 18 -5z m35 -60 c-12 -15 -37 -17 -58 -3 -12
7 -8 11 18 16 17 4 32 12 32 18 0 6 4 4 10 -4 5 -9 5 -19 -2 -27z m2147 -828
c50 -49 15 -135 -55 -135 -41 0 -80 39 -80 80 0 41 39 80 80 80 19 0 40 -9 55
-25z m306 -4 c16 -16 29 -39 29 -51 0 -28 -52 -80 -80 -80 -28 0 -80 52 -80
80 0 28 52 80 80 80 12 0 35 -13 51 -29z"/>
<path d="M1194 9496 c-10 -25 0 -61 18 -64 24 -5 42 32 28 58 -12 23 -38 26
-46 6z"/>
<path d="M1720 9491 c-14 -27 4 -64 28 -59 12 2 17 13 17 38 0 41 -27 53 -45
21z"/>
<path d="M2044 9496 c-11 -28 0 -61 21 -61 16 0 20 7 20 35 0 25 -5 36 -18 38
-9 2 -20 -3 -23 -12z"/>
<path d="M2183 9463 c-7 -2 -13 -11 -13 -20 0 -20 34 -12 38 10 3 17 -3 20
-25 10z"/>
<path d="M2694 9485 c-8 -32 16 -61 41 -51 26 10 16 70 -12 74 -17 3 -24 -3
-29 -23z"/>
<path d="M2824 9496 c-11 -28 0 -61 21 -61 16 0 20 7 20 35 0 25 -5 36 -18 38
-9 2 -20 -3 -23 -12z"/>
<path d="M2950 9491 c-14 -27 4 -64 28 -59 24 5 24 71 0 76 -9 2 -22 -6 -28
-17z"/>
<path d="M1556 7637 c-21 -16 -18 -45 7 -61 26 -16 71 12 75 47 3 25 0 27 -30
27 -19 0 -42 -6 -52 -13z"/>
<path d="M2491 7724 c-61 -78 22 -201 89 -134 30 30 28 109 -3 138 -31 29 -61
28 -86 -4z"/>
<path d="M3430 7730 c-15 -15 -20 -33 -20 -70 0 -57 24 -90 63 -90 39 0 62 35
62 92 0 40 -5 53 -24 69 -30 24 -56 24 -81 -1z"/>
<path d="M4390 7723 l-22 -28 31 -3 c17 -2 44 -2 61 0 28 3 29 4 17 28 -18 37
-59 38 -87 3z"/>
<path d="M2775 7090 c-9 -29 4 -62 23 -58 12 2 18 15 20 41 3 31 0 37 -17 37
-11 0 -22 -9 -26 -20z"/>
<path d="M3104 7095 c-9 -22 4 -65 20 -65 22 0 39 28 32 55 -7 28 -43 35 -52
10z"/>
<path d="M6324 7096 c-11 -28 0 -61 21 -61 16 0 20 7 20 35 0 25 -5 36 -18 38
-9 2 -20 -3 -23 -12z"/>
<path d="M1070 7090 c0 -62 5 -68 41 -50 14 8 19 21 19 48 0 41 -14 62 -42 62
-15 0 -18 -9 -18 -60z"/>
<path d="M1494 7085 c-8 -32 16 -61 41 -51 26 10 16 70 -12 74 -17 3 -24 -3
-29 -23z"/>
<path d="M1737 7103 c-13 -12 -7 -23 13 -23 11 0 20 7 20 15 0 15 -21 21 -33
8z"/>
<path d="M2180 7095 c0 -8 9 -15 20 -15 11 0 20 7 20 15 0 8 -9 15 -20 15 -11
0 -20 -7 -20 -15z"/>
<path d="M2520 7091 c-14 -27 4 -64 28 -59 12 2 17 13 17 38 0 41 -27 53 -45
21z"/>
<path d="M3237 7103 c-13 -12 -7 -23 13 -23 11 0 20 7 20 15 0 15 -21 21 -33
8z"/>
<path d="M3710 7091 c-14 -27 4 -64 28 -59 24 5 24 71 0 76 -9 2 -22 -6 -28
-17z"/>
<path d="M4764 7085 c-8 -32 16 -61 41 -51 26 10 16 70 -12 74 -17 3 -24 -3
-29 -23z"/>
<path d="M5187 7103 c-13 -12 -7 -23 13 -23 11 0 20 7 20 15 0 15 -21 21 -33
8z"/>
<path d="M5307 7103 c-13 -12 -7 -23 13 -23 11 0 20 7 20 15 0 15 -21 21 -33
8z"/>
<path d="M5488 7062 c-22 -4 -24 -32 -3 -32 9 0 18 7 22 15 7 19 3 22 -19 17z"/>
<path d="M5837 7095 c-5 -11 0 -15 19 -15 16 0 24 5 22 13 -7 18 -35 20 -41 2z"/>
<path d="M6213 7063 c-7 -2 -13 -11 -13 -20 0 -20 34 -12 38 10 3 17 -3 20
-25 10z"/>
<path d="M1064 6775 c-9 -22 4 -65 20 -65 22 0 39 28 32 55 -7 28 -43 35 -52
10z"/>
<path d="M1610 6775 c0 -8 9 -15 20 -15 11 0 20 7 20 15 0 8 -9 15 -20 15 -11
0 -20 -7 -20 -15z"/>
<path d="M2014 6776 c-10 -25 0 -61 18 -64 24 -5 42 32 28 58 -12 23 -38 26
-46 6z"/>
<path d="M2437 6784 c-14 -14 -6 -24 19 -24 16 0 24 5 22 13 -5 14 -31 21 -41
11z"/>
<path d="M2600 3615 c-16 -19 -3 -57 18 -53 22 4 28 53 8 61 -8 3 -20 0 -26
-8z"/>
<path d="M3657 3624 c-4 -4 -7 -20 -7 -36 0 -22 5 -28 21 -28 17 0 20 5 17 32
-3 31 -17 45 -31 32z"/>
<path d="M1927 3626 c-11 -27 -8 -36 8 -36 16 0 17 5 6 34 -7 18 -8 18 -14 2z"/>
<path d="M2047 3610 c-4 -15 0 -20 13 -20 13 0 17 5 13 20 -3 11 -9 20 -13 20
-4 0 -10 -9 -13 -20z"/>
<path d="M2327 3623 c-4 -3 -7 -19 -7 -35 0 -23 4 -29 18 -26 21 4 28 41 9 56
-8 7 -17 9 -20 5z"/>
<path d="M2492 3614 c-14 -24 -3 -54 20 -54 16 0 19 6 16 32 -3 36 -22 47 -36
22z"/>
<path d="M3137 3583 c-12 -11 -8 -23 8 -23 8 0 15 7 15 15 0 16 -12 20 -23 8z"/>
<path d="M3557 3583 c-12 -11 -8 -23 8 -23 8 0 15 7 15 15 0 16 -12 20 -23 8z"/>
<path d="M3760 3610 c0 -5 9 -10 21 -10 11 0 17 5 14 10 -3 6 -13 10 -21 10
-8 0 -14 -4 -14 -10z"/>
<path d="M4380 3615 c-10 -13 -9 -15 9 -15 11 0 21 4 21 9 0 18 -18 21 -30 6z"/>
<path d="M4624 3616 c-9 -23 0 -51 17 -54 21 -4 32 24 19 49 -13 23 -28 25
-36 5z"/>
<path d="M5316 3623 c-11 -11 -6 -23 9 -23 8 0 15 4 15 9 0 13 -16 22 -24 14z"/>
<path d="M5417 3583 c-12 -11 -8 -23 8 -23 8 0 15 7 15 15 0 16 -12 20 -23 8z"/>
<path d="M5660 3610 c0 -5 9 -10 21 -10 11 0 17 5 14 10 -3 6 -13 10 -21 10
-8 0 -14 -4 -14 -10z"/>
<path d="M3117 3374 c-4 -4 -7 -20 -7 -36 0 -22 5 -28 21 -28 17 0 20 5 17 32
-3 31 -17 45 -31 32z"/>
<path d="M5350 3365 c-16 -19 -3 -57 18 -53 22 4 28 53 8 61 -8 3 -20 0 -26
-8z"/>
<path d="M1956 3373 c-11 -11 -6 -23 9 -23 8 0 15 4 15 9 0 13 -16 22 -24 14z"/>
<path d="M2140 3365 c-10 -13 -9 -15 9 -15 11 0 21 4 21 9 0 18 -18 21 -30 6z"/>
<path d="M2556 3373 c-11 -11 -6 -23 9 -23 8 0 15 4 15 9 0 13 -16 22 -24 14z"/>
<path d="M2910 3330 c-8 -5 -11 -12 -8 -16 10 -9 38 3 38 16 0 12 -10 13 -30
0z"/>
<path d="M3380 3330 c-8 -5 -11 -12 -8 -16 10 -9 38 3 38 16 0 12 -10 13 -30
0z"/>
<path d="M3630 3330 c-8 -5 -11 -12 -8 -16 10 -9 38 3 38 16 0 12 -10 13 -30
0z"/>
<path d="M4040 3360 c0 -5 9 -10 21 -10 11 0 17 5 14 10 -3 6 -13 10 -21 10
-8 0 -14 -4 -14 -10z"/>
<path d="M4250 3360 c0 -5 9 -10 20 -10 11 0 20 5 20 10 0 6 -9 10 -20 10 -11
0 -20 -4 -20 -10z"/>
<path d="M4360 3330 c-8 -5 -11 -12 -8 -16 10 -9 38 3 38 16 0 12 -10 13 -30
0z"/>
<path d="M4690 3360 c0 -5 9 -10 21 -10 11 0 17 5 14 10 -3 6 -13 10 -21 10
-8 0 -14 -4 -14 -10z"/>
<path d="M5150 3365 c-10 -13 -9 -15 9 -15 11 0 21 4 21 9 0 18 -18 21 -30 6z"/>
<path d="M5256 3373 c-11 -11 -6 -23 9 -23 8 0 15 4 15 9 0 13 -16 22 -24 14z"/>
<path d="M5571 3366 c-18 -21 -9 -51 14 -51 24 0 32 36 12 53 -11 10 -17 9
-26 -2z"/>
<path d="M1393 3113 c-7 -3 -13 -18 -13 -34 0 -22 5 -29 20 -29 15 0 20 7 20
29 0 32 -7 41 -27 34z"/>
<path d="M1850 3105 c-10 -13 -9 -15 9 -15 11 0 21 4 21 9 0 18 -18 21 -30 6z"/>
<path d="M2460 3105 c-16 -19 -3 -57 18 -53 22 4 28 53 8 61 -8 3 -20 0 -26
-8z"/>
<path d="M2570 3105 c-16 -19 -3 -57 18 -53 22 4 28 53 8 61 -8 3 -20 0 -26
-8z"/>
<path d="M2710 2410 c0 -62 5 -68 41 -50 14 8 19 21 19 48 0 41 -14 62 -42 62
-15 0 -18 -9 -18 -60z"/>
<path d="M2277 2423 c-14 -13 -7 -64 9 -70 24 -9 48 21 40 51 -6 25 -33 35
-49 19z"/>
<path d="M2854 2416 c-10 -25 0 -61 18 -64 24 -5 42 32 28 58 -12 23 -38 26
-46 6z"/>
<path d="M2987 2423 c-13 -12 -7 -23 13 -23 11 0 20 7 20 15 0 15 -21 21 -33
8z"/>
<path d="M3127 2063 c-4 -3 -7 -19 -7 -35 0 -40 24 -31 28 10 3 30 -6 41 -21
25z"/>
<path d="M2404 2066 c-11 -28 0 -61 21 -61 16 0 20 7 20 35 0 25 -5 36 -18 38
-9 2 -20 -3 -23 -12z"/>
<path d="M2710 2065 c0 -8 9 -15 20 -15 11 0 20 7 20 15 0 8 -9 15 -20 15 -11
0 -20 -7 -20 -15z"/>
<path d="M2827 2065 c-5 -11 0 -15 19 -15 16 0 24 5 22 13 -7 18 -35 20 -41 2z"/>
<path d="M3424 2066 c-10 -25 0 -61 18 -64 24 -5 42 32 28 58 -12 23 -38 26
-46 6z"/>
<path d="M3744 2066 c-10 -25 0 -61 18 -64 24 -5 42 32 28 58 -12 23 -38 26
-46 6z"/>
<path d="M3888 2032 c-20 -4 -23 -17 -7 -28 12 -7 33 10 28 23 -2 5 -12 7 -21
5z"/>
<path d="M4445 2027 c-13 -10 -15 -16 -6 -21 17 -11 41 0 41 19 0 19 -11 19
-35 2z"/>
<path d="M4760 2065 c0 -8 9 -15 20 -15 11 0 20 7 20 15 0 8 -9 15 -20 15 -11
0 -20 -7 -20 -15z"/>
<path d="M10130 8790 c0 -100 3 -120 15 -120 13 0 15 20 15 120 0 100 -2 120
-15 120 -12 0 -15 -20 -15 -120z"/>
<path d="M9690 8788 c37 -160 54 -157 96 15 9 38 19 25 41 -58 29 -105 45 -99
77 29 30 122 31 126 12 126 -17 0 -20 -7 -36 -92 -8 -37 -16 -65 -19 -62 -3 3
-15 38 -26 77 -28 97 -46 100 -70 10 -10 -37 -21 -74 -25 -81 -3 -7 -15 23
-25 67 -14 62 -22 81 -35 81 -15 0 -14 -11 10 -112z"/>
<path d="M11469 8874 c-33 -35 -35 -128 -3 -171 30 -40 93 -45 129 -9 14 14
25 32 25 41 0 24 -30 17 -40 -10 -8 -20 -16 -25 -44 -25 -43 0 -56 20 -56 87
0 51 14 80 40 83 36 5 51 -2 60 -25 10 -26 40 -35 40 -11 0 7 -9 25 -21 40
-29 37 -95 37 -130 0z"/>
<path d="M12880 8785 c0 -108 1 -115 20 -115 18 0 20 7 20 83 l1 82 52 -82
c75 -119 87 -115 87 32 0 94 -3 115 -15 115 -11 0 -15 -18 -17 -82 l-3 -83
-54 83 c-36 55 -59 82 -72 82 -18 0 -19 -9 -19 -115z"/>
<path d="M13738 8818 c5 -90 6 -93 21 -83 6 3 11 40 11 86 0 70 -2 79 -18 79
-17 0 -18 -7 -14 -82z"/>
<path d="M11090 8860 c0 -11 -7 -20 -15 -20 -8 0 -15 -4 -15 -10 0 -5 7 -10
15 -10 12 0 15 -13 15 -56 0 -68 13 -94 45 -94 27 0 34 17 10 26 -11 5 -15 22
-15 65 0 46 3 59 15 59 8 0 15 5 15 10 0 6 -7 10 -15 10 -8 0 -15 9 -15 20 0
13 -7 20 -20 20 -13 0 -20 -7 -20 -20z"/>
<path d="M10001 8838 c-35 -13 -50 -38 -51 -84 0 -49 31 -84 76 -84 36 0 70
22 60 39 -5 7 -12 9 -19 3 -27 -20 -48 -21 -67 -2 -31 31 -24 40 35 40 54 0
55 1 55 28 0 46 -46 76 -89 60z m47 -30 c22 -22 13 -38 -21 -38 -43 0 -51 9
-30 32 19 21 34 23 51 6z"/>
<path d="M10255 8842 c-39 -8 -55 -33 -55 -84 0 -56 24 -88 68 -88 32 0 72 25
72 46 0 19 -26 18 -34 -1 -7 -18 -47 -20 -64 -3 -17 17 -15 74 4 92 21 22 41
20 56 -4 15 -23 38 -27 38 -7 0 28 -49 57 -85 49z"/>
<path d="M10425 8842 c-49 -10 -73 -62 -55 -118 30 -89 150 -64 150 31 0 55
-45 97 -95 87z m51 -47 c34 -53 -16 -122 -62 -85 -20 18 -18 86 4 99 27 16 40
13 58 -14z"/>
<path d="M10615 8840 c-11 -5 -30 -6 -42 -3 -22 5 -23 3 -23 -81 0 -70 3 -86
15 -86 12 0 15 13 15 59 0 41 5 65 16 75 38 38 64 6 64 -78 0 -43 3 -56 15
-56 12 0 15 14 15 64 0 71 17 99 48 79 13 -7 18 -28 20 -77 2 -50 6 -66 17
-66 12 0 15 16 15 73 0 43 -5 78 -12 85 -15 15 -74 16 -83 2 -4 -7 -11 -7 -18
-2 -21 16 -41 19 -62 12z"/>
<path d="M10883 8842 c-52 -8 -74 -111 -33 -152 24 -24 77 -27 106 -6 26 20
11 31 -24 18 -23 -8 -35 -7 -51 4 -39 28 -26 44 34 44 51 0 55 2 55 23 0 47
-38 77 -87 69z m47 -41 c15 -29 13 -31 -30 -31 -43 0 -49 9 -24 34 21 21 41
20 54 -3z"/>
<path d="M11233 8842 c-33 -5 -53 -40 -53 -89 0 -54 26 -83 74 -83 44 0 76 38
76 89 -1 57 -42 92 -97 83z m49 -39 c24 -22 23 -68 -3 -94 -18 -18 -23 -19
-42 -6 -28 18 -35 78 -12 101 21 20 34 20 57 -1z"/>
<path d="M11703 8842 c-33 -5 -53 -40 -53 -89 0 -54 26 -83 74 -83 44 0 76 38
76 89 -1 57 -42 92 -97 83z m49 -39 c24 -22 23 -68 -3 -94 -18 -18 -23 -19
-42 -6 -28 18 -35 78 -12 101 21 20 34 20 57 -1z"/>
<path d="M11906 8842 c-3 -3 -19 -5 -36 -4 l-30 1 0 -85 c0 -67 3 -84 15 -84
11 0 15 16 17 66 2 49 7 70 20 77 31 20 48 -8 48 -79 0 -50 3 -64 15 -64 12 0
15 14 15 65 0 53 3 66 19 75 39 20 51 3 51 -71 0 -62 2 -69 20 -69 18 0 20 7
20 58 0 76 -16 106 -58 110 -18 2 -39 -2 -47 -8 -8 -6 -16 -7 -19 -2 -7 12
-43 22 -50 14z"/>
<path d="M12186 8842 c-3 -3 -19 -5 -36 -4 l-30 1 0 -115 c0 -95 3 -114 15
-114 10 0 15 10 15 33 0 32 1 33 34 29 48 -6 76 24 76 81 0 23 -7 52 -15 64
-14 21 -49 36 -59 25z m28 -44 c22 -31 20 -64 -4 -88 -16 -16 -25 -18 -40 -10
-27 14 -29 94 -2 109 24 15 29 14 46 -11z"/>
<path d="M12345 8842 c-26 -5 -45 -21 -45 -38 0 -18 18 -18 36 1 21 20 41 19
54 -4 9 -17 5 -20 -30 -26 -45 -8 -70 -27 -70 -55 0 -34 27 -49 85 -48 l55 2
0 61 c0 84 -27 119 -85 107z m55 -105 c0 -20 -21 -37 -46 -37 -29 0 -39 16
-24 35 15 19 70 20 70 2z"/>
<path d="M12535 8839 c-11 -4 -30 -5 -42 -2 -22 5 -23 3 -23 -81 0 -70 3 -86
15 -86 12 0 15 13 15 59 0 63 17 95 49 89 13 -3 17 -18 19 -76 3 -64 5 -72 22
-72 18 0 20 7 20 59 0 96 -23 130 -75 110z"/>
<path d="M13155 8842 c-26 -5 -45 -21 -45 -38 0 -18 18 -18 36 1 21 20 41 19
54 -4 9 -17 5 -20 -30 -26 -45 -8 -70 -27 -70 -55 0 -34 27 -49 85 -48 l55 2
0 61 c0 84 -27 119 -85 107z m55 -105 c0 -20 -21 -37 -46 -37 -29 0 -39 16
-24 35 15 19 70 20 70 2z"/>
<path d="M13598 8836 c-37 -19 -53 -61 -39 -107 7 -21 20 -43 31 -49 28 -15
76 -12 90 5 18 21 5 30 -24 17 -18 -8 -28 -7 -45 4 -39 28 -26 44 34 44 51 0
55 2 55 23 0 52 -55 86 -102 63z m56 -32 c22 -22 11 -34 -30 -34 -35 0 -44 16
-22 38 16 16 34 15 52 -4z"/>
<path d="M12630 8836 c0 -3 13 -42 30 -87 l29 -81 -24 -24 c-14 -14 -25 -29
-25 -34 0 -14 23 -12 43 3 17 13 93 215 83 224 -14 14 -33 -9 -45 -56 -7 -29
-16 -49 -20 -46 -3 4 -13 27 -22 53 -9 27 -23 48 -32 50 -10 2 -17 1 -17 -2z"/>
<path d="M13280 8754 c0 -68 3 -84 15 -84 12 0 15 14 15 65 0 53 3 66 19 75
39 20 51 3 51 -71 0 -62 2 -69 20 -69 18 0 20 7 20 64 0 71 17 99 48 79 13 -7
18 -28 20 -77 2 -50 6 -66 17 -66 12 0 15 15 15 66 0 36 -5 74 -10 85 -12 21
-58 26 -90 9 -12 -7 -21 -7 -25 0 -3 5 -31 9 -61 9 l-54 -2 0 -83z"/>
<path d="M13737 8694 c-9 -10 2 -24 19 -24 8 0 14 7 14 15 0 15 -21 21 -33 9z"/>
<path d="M10170 7865 c0 -50 4 -85 10 -85 6 0 10 35 10 85 0 50 -4 85 -10 85
-6 0 -10 -35 -10 -85z"/>
<path d="M9680 7860 l0 -80 45 0 c25 0 45 5 45 10 0 6 -18 10 -41 10 -38 0
-40 1 -37 28 2 22 9 28 38 33 l35 6 -38 2 c-36 1 -38 3 -35 29 3 23 9 28 43
33 l40 6 -47 2 -48 1 0 -80z"/>
<path d="M10120 7930 c0 -5 5 -10 10 -10 6 0 10 5 10 10 0 6 -4 10 -10 10 -5
0 -10 -4 -10 -10z"/>
<path d="M9800 7838 c0 -32 4 -58 10 -58 6 0 10 22 10 49 0 48 10 63 38 54 7
-3 12 -23 12 -54 0 -63 18 -64 22 -1 3 40 6 47 25 50 23 3 27 -5 37 -73 2 -16
3 -3 2 30 -1 55 -3 60 -24 63 -13 2 -29 -2 -37 -8 -9 -7 -15 -8 -20 -1 -3 6
-21 10 -40 9 l-35 -1 0 -59z"/>
<path d="M10010 7890 c-8 -5 -11 -12 -7 -16 3 -4 13 -1 22 6 12 10 18 10 30 0
23 -19 18 -30 -15 -30 -34 0 -53 -25 -39 -52 6 -12 20 -16 47 -15 l39 1 -5 51
c-6 62 -31 81 -72 55z m58 -67 c-4 -20 -35 -30 -50 -15 -15 15 0 32 28 32 19
0 25 -5 22 -17z"/>
<path d="M10120 7840 c0 -33 4 -60 10 -60 6 0 10 27 10 60 0 33 -4 60 -10 60
-6 0 -10 -27 -10 -60z"/>
<path d="M10610 6561 c0 -25 -3 -28 -27 -23 -31 6 -53 -18 -53 -57 0 -40 15
-55 59 -57 l41 -2 0 84 c0 49 -4 84 -10 84 -5 0 -10 -13 -10 -29z m-11 -45 c7
-8 11 -27 9 -43 -2 -22 -8 -28 -28 -28 -20 0 -26 6 -28 28 -3 27 12 57 28 57
4 0 13 -6 19 -14z"/>
<path d="M9681 6498 c1 -56 4 -72 8 -48 5 32 9 35 43 38 49 4 67 32 43 68 -12
19 -24 24 -55 24 l-40 0 1 -82z m84 51 c16 -16 -9 -44 -44 -47 -28 -3 -31 -1
-31 26 0 16 3 32 7 36 9 8 54 -1 68 -15z"/>
<path d="M9819 6523 c-12 -15 -12 -16 6 -9 22 8 25 9 43 7 23 -2 13 -31 -12
-31 -13 0 -29 -7 -37 -16 -20 -24 1 -49 45 -51 l36 -1 0 47 c0 26 -5 52 -12
59 -17 17 -53 15 -69 -5z m59 -60 c-4 -22 -48 -31 -48 -10 0 19 10 27 32 27
13 0 18 -6 16 -17z"/>
<path d="M9940 6521 c-8 -16 -6 -23 12 -35 12 -9 28 -16 35 -16 18 0 16 -27
-2 -34 -8 -3 -22 2 -30 11 -9 8 -19 12 -23 8 -9 -9 27 -35 48 -35 20 0 40 19
40 38 0 7 -16 20 -35 28 -19 8 -35 18 -35 23 0 14 25 20 41 10 22 -14 33 -11
19 6 -18 21 -57 19 -70 -4z"/>
<path d="M10063 6533 c-27 -10 -13 -43 23 -58 31 -13 35 -17 24 -30 -11 -14
-15 -14 -36 0 -21 13 -24 13 -24 1 0 -8 9 -18 20 -21 57 -18 85 37 30 58 -30
11 -39 30 -20 42 6 4 18 1 26 -6 8 -6 18 -9 21 -5 16 16 -35 31 -64 19z"/>
<path d="M10160 6535 c0 -4 7 -31 16 -61 17 -58 28 -62 39 -14 10 45 23 45 36
0 7 -22 15 -40 19 -40 4 0 12 19 19 43 7 23 15 50 17 60 3 9 1 17 -4 17 -6 0
-13 -18 -17 -40 -9 -51 -19 -51 -34 0 -13 45 -26 45 -36 0 -10 -43 -23 -46
-31 -5 -5 30 -24 60 -24 40z"/>
<path d="M10347 6522 c-47 -52 18 -135 67 -86 33 33 10 104 -33 104 -10 0 -25
-8 -34 -18z m57 -8 c19 -19 20 -35 3 -58 -20 -27 -51 -17 -55 17 -3 27 12 57
29 57 4 0 15 -7 23 -16z"/>
<path d="M10460 6478 c0 -32 4 -58 10 -58 6 0 10 20 10 44 0 34 5 47 23 59 22
15 22 15 -10 15 l-33 -1 0 -59z"/>
<path d="M9672 5018 c-9 -9 -12 -90 -12 -303 0 -213 3 -294 12 -303 17 -17
7639 -17 7656 0 9 9 12 90 12 303 0 213 -3 294 -12 303 -17 17 -7639 17 -7656
0z m3501 -236 c9 -8 17 -19 17 -24 0 -14 -28 -9 -34 7 -7 18 -37 20 -54 3 -7
-7 -12 -28 -12 -48 0 -59 43 -82 72 -38 8 12 17 17 21 11 13 -20 -23 -53 -58
-53 -41 0 -65 29 -65 78 0 78 58 111 113 64z m387 7 c0 -5 -7 -9 -15 -9 -15 0
-20 12 -9 23 8 8 24 -1 24 -14z m-70 -14 c0 -8 8 -15 18 -15 16 -1 16 -1 0
-14 -22 -16 -24 -74 -3 -82 23 -9 18 -26 -7 -22 -19 2 -24 10 -26 48 -2 24 -9
48 -15 53 -9 7 -9 10 1 14 6 2 12 11 12 19 0 8 5 14 10 14 6 0 10 -7 10 -15z
m-180 -47 c13 -25 13 -31 0 -55 -11 -20 -25 -29 -46 -31 -37 -4 -57 17 -57 58
0 41 20 62 57 58 21 -2 35 -11 46 -30z m120 13 c16 -31 13 -101 -5 -101 -11 0
-15 12 -15 45 0 33 -5 47 -16 52 -21 8 -34 -14 -34 -59 0 -21 -4 -38 -10 -38
-6 0 -10 26 -10 58 l0 59 40 1 c30 1 42 -3 50 -17z m130 -41 c0 -47 -3 -60
-15 -60 -12 0 -15 13 -15 60 0 47 3 60 15 60 12 0 15 -13 15 -60z m120 41 c16
-31 13 -101 -5 -101 -11 0 -15 12 -15 45 0 33 -5 47 -16 52 -21 8 -34 -14 -34
-59 0 -21 -4 -38 -10 -38 -6 0 -10 26 -10 58 l0 59 40 1 c30 1 42 -3 50 -17z
m62 -28 c2 -36 7 -49 21 -51 14 -3 17 4 17 47 0 39 4 51 15 51 12 0 15 -13 15
-60 l0 -60 -38 0 c-21 0 -43 5 -50 12 -18 18 -16 108 2 108 11 0 16 -14 18
-47z m185 18 c16 -33 9 -41 -33 -41 -24 0 -34 -4 -31 -12 2 -7 18 -12 36 -11
41 2 36 -21 -6 -25 -37 -4 -63 19 -63 55 0 60 72 84 97 34z"/>
<path d="M13234 4715 c-8 -32 16 -61 41 -51 26 10 16 70 -12 74 -17 3 -24 -3
-29 -23z"/>
<path d="M13867 4733 c-14 -13 -6 -23 18 -23 18 0 23 4 19 15 -6 16 -26 20
-37 8z"/>
<path d="M13045 4232 c-18 -13 -34 -49 -25 -58 5 -5 10 -27 13 -49 4 -40 4
-40 5 8 1 30 7 47 15 47 8 0 7 4 -3 10 -13 9 -13 12 3 24 26 20 19 38 -8 18z"/>
<path d="M9670 4161 c0 -70 1 -71 26 -71 14 0 34 5 45 10 20 11 26 45 9 55 -6
4 -5 13 2 25 16 25 3 39 -45 47 l-37 6 0 -72z m61 49 c5 0 9 -9 9 -20 0 -15
-7 -20 -25 -20 -20 0 -25 5 -25 26 0 20 4 25 16 20 9 -3 20 -6 25 -6z m10 -66
c11 -14 10 -18 -6 -30 -30 -22 -45 -17 -45 16 0 23 5 30 19 30 10 0 25 -7 32
-16z"/>
<path d="M12073 4160 c0 -41 1 -64 4 -50 9 60 14 70 33 70 17 0 20 -7 20 -45
0 -25 5 -45 10 -45 11 0 13 42 4 78 -5 16 -14 22 -34 22 -22 0 -30 6 -33 23
-2 12 -4 -12 -4 -53z"/>
<path d="M12310 4220 c0 -5 11 -10 25 -10 23 0 24 -4 28 -62 l3 -63 2 63 c2
59 3 62 27 62 14 0 25 5 25 10 0 6 -25 10 -55 10 -30 0 -55 -4 -55 -10z"/>
<path d="M13130 4176 c0 -58 16 -86 50 -86 34 0 50 28 50 86 0 30 -4 54 -10
54 -6 0 -10 -26 -10 -59 0 -61 -12 -77 -45 -65 -11 5 -15 22 -15 65 0 33 -4
59 -10 59 -5 0 -10 -24 -10 -54z"/>
<path d="M13780 4211 c0 -14 -8 -21 -26 -23 -36 -4 -51 -29 -38 -65 8 -22 16
-28 42 -29 l32 -1 0 69 c0 37 -2 68 -5 68 -3 0 -5 -9 -5 -19z m-2 -65 c3 -26
-10 -45 -31 -46 -14 0 -25 44 -15 63 14 27 42 17 46 -17z"/>
<path d="M13877 4223 c-11 -10 -8 -133 2 -133 5 0 11 12 13 28 2 22 9 28 38
32 65 9 47 80 -20 80 -15 0 -30 -3 -33 -7z m68 -38 c0 -14 -8 -21 -27 -23 -24
-3 -28 0 -28 23 0 23 4 26 28 23 19 -2 27 -9 27 -23z"/>
<path d="M14540 4160 c0 -40 4 -70 10 -70 6 0 10 14 10 30 0 26 3 30 29 30 34
0 55 22 46 48 -6 20 -32 32 -72 32 -22 0 -23 -4 -23 -70z m75 25 c0 -14 -8
-21 -27 -23 -24 -3 -28 0 -28 23 0 23 4 26 28 23 19 -2 27 -9 27 -23z"/>
<path d="M14773 4160 c0 -41 2 -58 4 -37 2 20 2 54 0 75 -2 20 -4 3 -4 -38z"/>
<path d="M10242 4194 c-7 -8 -8 -14 -3 -14 5 0 11 -19 13 -42 2 -24 9 -43 16
-46 11 -3 12 0 3 16 -14 27 -14 69 0 74 8 3 7 7 -2 15 -11 8 -17 7 -27 -3z"/>
<path d="M11792 4193 c-7 -7 -8 -13 -3 -13 5 0 11 -19 13 -42 2 -26 9 -43 18
-46 12 -4 13 -2 3 9 -15 15 -17 76 -4 81 5 2 4 8 -3 14 -8 8 -15 7 -24 -3z"/>
<path d="M12009 4198 c-5 -62 10 -109 35 -107 7 0 6 2 -1 6 -16 6 -17 83 -2
83 6 0 4 7 -5 15 -18 18 -26 19 -27 3z"/>
<path d="M9795 4149 c17 -48 19 -79 5 -79 -5 0 -10 -5 -10 -11 0 -21 22 4 39
45 27 62 33 86 23 86 -5 0 -13 -16 -16 -35 -8 -41 -21 -38 -31 5 -4 17 -11 30
-15 30 -5 0 -3 -19 5 -41z"/>
<path d="M9936 4174 c-10 -27 -7 -61 9 -74 16 -13 55 -5 55 12 0 6 -6 6 -15
-2 -21 -18 -47 5 -43 39 2 18 10 27 26 29 12 2 22 -1 22 -7 0 -6 5 -11 11 -11
8 0 8 5 -1 15 -16 20 -56 19 -64 -1z"/>
<path d="M10042 4178 c-17 -17 -15 -63 3 -78 12 -10 21 -10 40 -2 42 19 30 92
-15 92 -9 0 -21 -5 -28 -12z m54 -24 c9 -35 -18 -63 -40 -44 -16 13 -22 51 -9
63 16 16 43 6 49 -19z"/>
<path d="M10141 4135 c1 -27 3 -39 6 -25 9 60 14 70 33 70 17 0 20 -7 20 -45
0 -25 5 -45 10 -45 11 0 13 43 4 78 -5 18 -13 22 -40 20 l-34 -2 1 -51z"/>
<path d="M10313 4140 c0 -30 2 -43 4 -27 2 15 2 39 0 55 -2 15 -4 2 -4 -28z"/>
<path d="M10362 4136 l1 -51 6 45 c5 36 10 45 26 45 16 0 21 -9 26 -45 l7 -45
-2 50 c-1 49 -1 50 -33 51 l-33 1 2 -51z"/>
<path d="M10464 4145 l1 -50 38 -2 37 -1 0 49 c0 27 -4 49 -10 49 -5 0 -10
-18 -10 -39 0 -69 -45 -63 -53 7 -3 25 -4 21 -3 -13z"/>
<path d="M10573 4140 c0 -30 2 -43 4 -27 2 15 2 39 0 55 -2 15 -4 2 -4 -28z"/>
<path d="M10610 4139 c0 -27 5 -49 10 -49 6 0 10 18 10 40 0 27 5 43 15 47 22
8 28 -1 36 -50 l7 -42 -1 50 -2 50 -37 2 -38 1 0 -49z"/>
<path d="M10720 4166 c-5 -13 -6 -33 -3 -45 5 -21 36 -37 53 -26 5 3 10 0 10
-9 0 -19 -20 -26 -42 -14 -11 5 -18 5 -18 0 0 -12 29 -19 53 -14 14 3 17 15
17 66 0 62 0 62 -30 64 -24 2 -32 -3 -40 -22z m55 -26 c0 -28 -4 -35 -20 -35
-13 0 -21 8 -23 23 -5 34 5 54 25 50 13 -2 18 -13 18 -38z"/>
<path d="M10919 4141 c18 -43 18 -51 5 -70 -13 -18 -13 -20 0 -15 15 6 60 123
51 132 -4 4 -14 -16 -27 -58 -3 -9 -10 0 -17 23 -7 20 -17 37 -22 37 -5 0 0
-22 10 -49z"/>
<path d="M11012 4178 c-17 -17 -15 -63 3 -78 12 -10 21 -10 40 -2 42 19 30 92
-15 92 -9 0 -21 -5 -28 -12z m54 -24 c9 -35 -18 -63 -40 -44 -16 13 -22 51 -9
63 16 16 43 6 49 -19z"/>
<path d="M11114 4145 l1 -50 38 -2 37 -1 0 49 c0 27 -4 49 -10 49 -5 0 -10
-18 -10 -39 0 -69 -45 -63 -53 7 -3 25 -4 21 -3 -13z"/>
<path d="M11276 4181 c-3 -4 6 -6 19 -3 18 3 25 0 25 -11 0 -9 -10 -17 -21
-19 -24 -3 -48 -33 -36 -44 4 -4 23 -9 42 -10 34 -3 35 -2 35 31 0 18 -3 40
-6 49 -6 17 -49 22 -58 7z m44 -55 c0 -15 -24 -28 -34 -19 -13 14 -5 33 14 33
11 0 20 -6 20 -14z"/>
<path d="M11370 4166 c-5 -13 -6 -33 -3 -45 5 -21 36 -37 53 -26 5 3 10 0 10
-9 0 -19 -20 -26 -42 -14 -11 5 -18 5 -18 0 0 -12 29 -19 53 -14 14 3 17 15
17 66 0 62 0 62 -30 64 -24 2 -32 -3 -40 -22z m55 -26 c0 -28 -4 -35 -20 -35
-13 0 -21 8 -23 23 -5 34 5 54 25 50 13 -2 18 -13 18 -38z"/>
<path d="M11482 4138 c1 -47 2 -48 5 -13 2 22 11 46 20 53 15 11 15 12 -5 12
-20 0 -22 -5 -20 -52z"/>
<path d="M11552 4178 c-7 -7 -12 -24 -12 -38 0 -14 5 -31 12 -38 15 -15 45
-15 54 0 5 8 2 9 -11 5 -18 -7 -45 8 -45 24 0 5 16 9 35 9 38 0 40 2 25 31
-12 21 -40 25 -58 7z m46 -15 c2 -8 -6 -13 -22 -13 -19 0 -24 4 -19 15 6 18
34 16 41 -2z"/>
<path d="M11652 4178 c-7 -7 -12 -24 -12 -38 0 -14 5 -31 12 -38 15 -15 45
-15 54 0 5 8 2 9 -11 5 -18 -7 -45 8 -45 24 0 5 16 9 35 9 38 0 40 2 25 31
-12 21 -40 25 -58 7z m46 -15 c2 -8 -6 -13 -22 -13 -19 0 -24 4 -19 15 6 18
34 16 41 -2z"/>
<path d="M11862 4178 c-17 -17 -15 -63 3 -78 12 -10 21 -10 40 -2 42 19 30 92
-15 92 -9 0 -21 -5 -28 -12z m54 -24 c9 -35 -18 -63 -40 -44 -16 13 -22 51 -9
63 16 16 43 6 49 -19z"/>
<path d="M12181 4167 c-20 -51 16 -93 56 -67 17 11 17 11 1 6 -24 -7 -48 3
-48 20 0 9 11 14 31 14 26 0 30 3 27 23 -5 34 -55 37 -67 4z m57 -4 c2 -8 -6
-13 -22 -13 -25 0 -33 10 -19 24 10 10 36 3 41 -11z"/>
<path d="M12430 4170 c-17 -32 -4 -69 26 -76 15 -4 30 -2 37 6 10 10 8 12 -7
6 -18 -6 -46 9 -46 25 0 5 16 9 35 9 31 0 34 2 26 23 -11 31 -56 35 -71 7z
m58 -7 c2 -8 -6 -13 -22 -13 -25 0 -33 10 -19 24 10 10 36 3 41 -11z"/>
<path d="M12532 4138 c1 -43 2 -46 5 -16 3 24 12 43 26 53 21 15 21 15 -6 15
-26 0 -27 -2 -25 -52z"/>
<path d="M12590 4139 c0 -27 5 -49 10 -49 6 0 10 18 10 40 0 28 5 43 16 47 21
8 33 -13 35 -57 1 -26 3 -29 6 -10 9 61 14 71 31 68 12 -2 19 -17 23 -48 l6
-45 1 51 2 52 -70 0 -70 1 0 -50z"/>
<path d="M12767 4184 c-15 -16 -5 -36 23 -45 17 -6 30 -15 30 -19 0 -16 -21
-22 -36 -9 -8 6 -18 9 -21 5 -4 -4 -1 -11 7 -16 38 -24 84 5 55 34 -9 9 -23
16 -31 16 -8 0 -14 7 -14 15 0 18 21 20 39 3 11 -11 13 -10 9 2 -5 16 -49 26
-61 14z"/>
<path d="M12910 4169 c-26 -47 26 -101 65 -69 18 15 20 61 3 78 -19 19 -56 14
-68 -9z m60 -9 c11 -20 -1 -60 -18 -60 -24 0 -43 55 -25 73 12 13 32 7 43 -13z"/>
<path d="M13267 4183 c-14 -14 -6 -34 18 -45 14 -6 24 -16 22 -22 -5 -12 -11
-12 -42 0 -18 7 -19 6 -6 -10 20 -24 65 -17 69 10 2 16 -4 24 -28 33 -17 6
-29 15 -25 21 9 14 32 13 38 -2 2 -7 8 -10 12 -6 4 4 4 11 0 17 -7 12 -48 15
-58 4z"/>
<path d="M13362 4178 c-15 -15 -16 -60 0 -76 15 -15 55 -16 64 0 5 8 2 9 -9 5
-22 -8 -47 2 -47 19 0 9 11 14 31 14 26 0 30 3 27 23 -3 25 -45 36 -66 15z
m52 -13 c4 -11 -1 -15 -19 -15 -24 0 -32 10 -18 23 11 12 31 8 37 -8z"/>
<path d="M13516 4182 c-3 -5 6 -7 19 -4 18 3 25 0 25 -12 0 -9 -8 -16 -19 -16
-10 0 -24 -7 -31 -15 -18 -22 4 -45 41 -42 29 2 30 4 27 47 -3 40 -6 45 -30
48 -14 2 -29 -1 -32 -6z m54 -51 c0 -14 -28 -33 -40 -26 -20 12 -10 35 15 35
14 0 25 -4 25 -9z"/>
<path d="M13611 4135 c1 -27 3 -39 6 -25 9 60 14 70 33 70 17 0 20 -7 20 -45
0 -25 5 -45 10 -45 11 0 13 43 4 78 -5 18 -13 22 -40 20 l-34 -2 1 -51z"/>
<path d="M13990 4140 c0 -27 5 -50 10 -50 6 0 10 18 10 40 0 27 6 42 18 49 14
9 13 10 -10 11 -27 0 -28 -2 -28 -50z"/>
<path d="M14063 4140 c0 -30 2 -43 4 -27 2 15 2 39 0 55 -2 15 -4 2 -4 -28z"/>
<path d="M14100 4182 c0 -23 33 -93 40 -85 14 16 40 93 31 93 -5 0 -15 -17
-22 -37 l-12 -38 -11 32 c-12 34 -26 53 -26 35z"/>
<path d="M14205 4180 c-4 -7 2 -9 19 -4 20 5 26 2 26 -9 0 -9 -10 -17 -21 -19
-24 -3 -48 -33 -36 -45 5 -4 24 -8 43 -8 l35 -2 -3 46 c-3 41 -6 46 -30 49
-14 2 -29 -2 -33 -8z m45 -54 c0 -17 -27 -29 -35 -16 -4 6 -3 15 0 20 9 15 35
12 35 -4z"/>
<path d="M14301 4168 c-20 -54 35 -104 69 -63 15 18 -1 20 -18 3 -19 -19 -46
14 -38 46 6 26 29 35 41 16 3 -5 11 -10 17 -10 7 0 6 6 -2 15 -19 23 -59 19
-69 -7z"/>
<path d="M14390 4185 c0 -3 7 -22 15 -42 19 -46 19 -63 -2 -79 -10 -7 -13 -13
-8 -14 22 0 36 19 55 75 23 67 23 65 11 65 -5 0 -12 -13 -16 -30 -4 -16 -10
-30 -15 -30 -5 0 -11 14 -15 30 -4 17 -11 30 -16 30 -5 0 -9 -2 -9 -5z"/>
<path d="M14661 4168 c-17 -45 22 -94 57 -72 11 8 17 24 17 50 0 37 -2 39 -33
42 -26 3 -34 -1 -41 -20z m57 0 c17 -17 15 -43 -4 -58 -22 -19 -49 9 -40 44 7
28 25 33 44 14z"/>
<path d="M14823 4140 c0 -30 2 -43 4 -27 2 15 2 39 0 55 -2 15 -4 2 -4 -28z"/>
<path d="M14866 4174 c-23 -60 27 -114 64 -69 15 18 -1 20 -18 3 -14 -14 -42
6 -42 32 0 28 27 45 45 30 17 -14 31 -8 20 9 -10 17 -62 13 -69 -5z"/>
<path d="M14969 4140 c17 -45 18 -52 4 -66 -16 -15 -12 -31 5 -20 13 8 56 125
49 132 -3 4 -12 -9 -20 -27 l-15 -34 -12 33 c-7 17 -16 32 -21 32 -5 0 0 -23
10 -50z"/>
<path d="M10820 4088 c0 -19 2 -20 10 -8 13 19 13 30 0 30 -5 0 -10 -10 -10
-22z"/>
<path d="M11038 2544 c-39 -17 -56 -43 -36 -55 8 -5 21 0 35 13 17 16 30 19
57 15 43 -7 72 17 34 28 -47 14 -54 13 -90 -1z"/>
<path d="M15200 2554 c-41 -14 -61 -30 -76 -62 -13 -29 -14 -41 -5 -73 15 -51
81 -103 81 -65 0 8 -10 16 -22 18 -12 2 -23 10 -26 18 -4 12 -2 13 9 3 15 -15
39 -17 39 -4 0 5 -9 12 -19 16 -22 7 -32 37 -25 74 5 25 9 27 69 27 60 0 64
-2 69 -27 7 -37 -3 -67 -25 -74 -13 -4 -19 -16 -19 -36 0 -34 8 -36 43 -8 39
30 54 87 33 130 -9 19 -24 39 -34 45 -23 15 -73 24 -92 18z"/>
<path d="M11930 2465 c0 -50 4 -85 10 -85 6 0 10 35 10 85 0 50 -4 85 -10 85
-6 0 -10 -35 -10 -85z"/>
<path d="M11411 2526 c-7 -8 -15 -32 -18 -53 -7 -52 25 -93 71 -93 39 0 56 15
56 52 0 24 -4 28 -30 28 -16 0 -30 -4 -30 -10 0 -5 7 -10 15 -10 8 0 15 -9 15
-20 0 -14 -7 -20 -24 -20 -34 0 -48 22 -44 72 3 37 6 43 27 46 15 3 30 -3 38
-14 16 -22 31 -9 17 14 -14 23 -77 28 -93 8z"/>
<path d="M15567 2522 c-21 -23 -22 -90 -1 -120 10 -15 25 -22 48 -22 39 0 56
15 56 52 0 24 -4 28 -30 28 -16 0 -30 -4 -30 -10 0 -5 9 -10 21 -10 14 0 19
-5 17 -17 -5 -25 -49 -29 -65 -7 -16 22 -17 76 -1 92 17 17 49 15 64 -5 16
-22 32 -8 18 15 -16 25 -76 27 -97 4z"/>
<path d="M15700 2530 c0 -5 7 -10 15 -10 8 0 15 5 15 10 0 6 -7 10 -15 10 -8
0 -15 -4 -15 -10z"/>
<path d="M15760 2516 c0 -8 -6 -17 -12 -20 -10 -5 -10 -7 0 -12 6 -3 12 -18
12 -32 0 -47 11 -72 31 -72 11 0 19 5 19 10 0 6 -4 10 -10 10 -15 0 -12 77 3
84 10 5 10 7 0 12 -7 3 -13 12 -13 20 0 8 -7 14 -15 14 -8 0 -15 -6 -15 -14z"/>
<path d="M11556 2478 c-9 -12 -16 -29 -16 -38 0 -27 30 -60 54 -60 48 0 75 70
40 104 -22 23 -60 20 -78 -6z m69 -18 c9 -29 -4 -60 -25 -60 -11 0 -24 9 -30
20 -14 26 3 60 30 60 10 0 22 -9 25 -20z"/>
<path d="M11687 2482 c-9 -10 -17 -30 -17 -45 0 -59 71 -76 100 -24 13 24 13
30 0 55 -19 33 -59 41 -83 14z m63 -22 c14 -26 -3 -60 -30 -60 -10 0 -22 9
-25 20 -9 29 4 60 25 60 11 0 24 -9 30 -20z"/>
<path d="M11812 2488 c-17 -17 -15 -83 3 -98 8 -7 26 -10 40 -8 28 6 32 -3 11
-21 -11 -9 -20 -9 -35 -2 -13 7 -22 8 -26 1 -3 -6 6 -15 21 -20 20 -8 32 -7
50 5 21 14 24 23 24 84 l0 68 -38 1 c-21 1 -44 -4 -50 -10z m63 -48 c0 -31 -3
-35 -25 -35 -19 0 -26 6 -28 23 -5 36 5 54 30 50 19 -2 23 -9 23 -38z"/>
<path d="M11990 2481 c-15 -28 -12 -77 4 -90 18 -15 68 -11 73 6 3 7 -8 10
-28 10 -18 -1 -34 4 -36 11 -3 8 8 12 36 12 31 0 41 4 41 16 0 32 -20 54 -50
54 -19 0 -33 -7 -40 -19z m60 -16 c0 -9 -9 -15 -25 -15 -18 0 -23 4 -19 15 4
8 15 15 25 15 10 0 19 -7 19 -15z"/>
<path d="M15700 2440 c0 -47 3 -60 15 -60 12 0 15 13 15 60 0 47 -3 60 -15 60
-12 0 -15 -13 -15 -60z"/>
<path d="M12100 1535 c0 -50 4 -85 10 -85 6 0 10 35 10 85 0 50 -4 85 -10 85
-6 0 -10 -35 -10 -85z"/>
<path d="M12540 1591 c0 -24 -3 -28 -20 -24 -30 8 -50 -15 -50 -57 0 -45 16
-60 58 -57 l32 2 0 83 c0 48 -4 82 -10 82 -5 0 -10 -13 -10 -29z m0 -82 c0
-34 -3 -39 -24 -39 -36 0 -49 46 -21 74 25 24 45 9 45 -35z"/>
<path d="M12763 1535 c0 -49 2 -70 4 -45 7 84 63 88 63 4 0 -24 5 -44 10 -44
13 0 13 76 -1 102 -8 15 -17 19 -39 14 -26 -5 -29 -3 -33 27 -2 18 -4 -8 -4
-58z"/>
<path d="M11976 1534 c-26 -72 -30 -110 -6 -65 15 29 76 30 85 1 3 -11 11 -20
16 -20 5 0 9 1 9 3 0 14 -59 152 -66 154 -5 2 -22 -31 -38 -73z m58 -1 c6 -20
4 -23 -18 -23 -29 0 -31 6 -15 47 11 30 19 24 33 -24z"/>
<path d="M14390 1596 c-14 -18 -7 -20 20 -6 13 7 21 5 31 -6 10 -12 8 -20 -10
-45 -27 -37 -20 -52 9 -18 12 15 19 36 17 54 -2 24 -7 31 -28 33 -14 2 -31 -4
-39 -12z"/>
<path d="M14320 1586 c0 -8 -6 -17 -12 -19 -10 -4 -10 -6 0 -6 7 -1 12 -16 12
-40 0 -50 8 -71 28 -71 12 0 13 3 4 12 -16 16 -16 95 1 101 10 4 10 6 0 6 -7
1 -13 8 -13 16 0 8 -4 15 -10 15 -5 0 -10 -6 -10 -14z"/>
<path d="M14550 1521 l0 -71 43 2 c36 1 38 2 10 5 l-33 4 0 59 c0 32 -4 62
-10 65 -6 4 -10 -20 -10 -64z"/>
<path d="M12162 1505 c2 -58 2 -59 5 -11 3 37 8 49 24 53 27 8 24 21 -6 19
-24 -1 -25 -4 -23 -61z"/>
<path d="M12246 1557 c-13 -9 -17 -23 -14 -52 2 -33 8 -41 30 -49 19 -7 31 -6
43 4 21 17 12 24 -13 11 -16 -9 -24 -7 -36 5 -22 22 -11 34 30 34 36 0 41 9
24 41 -12 22 -38 25 -64 6z m54 -23 c0 -8 -10 -14 -25 -14 -26 0 -35 25 -12
33 18 6 37 -3 37 -19z"/>
<path d="M12360 1555 c-14 -17 -3 -20 20 -5 9 5 19 5 27 -2 19 -15 16 -28 -6
-28 -35 0 -51 -12 -51 -36 0 -26 -1 -26 53 -29 37 -2 37 -2 37 37 0 22 -5 48
-10 59 -13 23 -52 25 -70 4z m60 -60 c0 -19 -24 -29 -46 -21 -13 5 -14 9 -4
21 16 20 50 19 50 0z"/>
<path d="M12590 1561 c0 -6 9 -34 19 -62 20 -50 20 -50 -1 -71 -18 -18 -18
-20 -1 -16 23 4 87 158 65 158 -5 0 -14 -18 -21 -40 -13 -45 -26 -45 -36 0 -6
29 -25 52 -25 31z"/>
<path d="M12889 1553 c-12 -15 -12 -16 6 -9 22 8 25 9 43 7 23 -2 13 -31 -12
-31 -13 0 -29 -7 -37 -16 -20 -24 1 -49 45 -51 l36 -1 0 47 c0 26 -5 52 -12
59 -17 17 -53 15 -69 -5z m59 -60 c-4 -22 -48 -31 -48 -10 0 19 10 27 32 27
13 0 18 -6 16 -17z"/>
<path d="M13012 1510 c11 -33 23 -60 26 -60 4 0 17 27 29 60 12 33 18 60 13
60 -5 0 -15 -18 -21 -40 -7 -22 -15 -40 -19 -40 -4 0 -12 18 -19 40 -6 22 -16
40 -21 40 -5 0 0 -27 12 -60z"/>
<path d="M13126 1557 c-13 -9 -17 -23 -14 -52 2 -33 8 -41 30 -49 19 -7 31 -6
43 4 21 17 12 24 -13 11 -16 -9 -24 -7 -36 5 -22 22 -11 34 30 34 36 0 41 9
24 41 -12 22 -38 25 -64 6z m54 -23 c0 -8 -10 -14 -25 -14 -26 0 -35 25 -12
33 18 6 37 -3 37 -19z"/>
<path d="M13289 1553 c-12 -15 -12 -16 6 -9 22 8 25 9 43 7 23 -2 13 -31 -12
-31 -13 0 -29 -7 -37 -16 -20 -24 1 -49 45 -51 l36 -1 0 47 c0 26 -5 52 -12
59 -17 17 -53 15 -69 -5z m59 -60 c-4 -22 -48 -31 -48 -10 0 19 10 27 32 27
13 0 18 -6 16 -17z"/>
<path d="M13400 1514 c0 -29 5 -56 10 -59 6 -4 10 11 10 39 0 34 5 48 19 55
26 14 39 -3 44 -59 3 -33 4 -29 3 15 l-1 60 -42 1 -43 1 0 -53z"/>
<path d="M13600 1560 c-8 -5 -11 -12 -7 -16 4 -4 12 -3 18 3 14 14 39 6 39
-13 0 -8 -10 -14 -24 -14 -13 0 -29 -7 -37 -16 -20 -25 1 -49 45 -49 l36 -1 0
46 c0 62 -28 87 -70 60z m50 -70 c0 -15 -7 -20 -25 -20 -24 0 -34 18 -18 33
15 15 43 7 43 -13z"/>
<path d="M13717 1552 c-45 -49 15 -136 61 -90 20 20 13 30 -10 14 -27 -20 -48
-5 -48 34 0 39 21 54 48 34 19 -13 22 -13 22 -1 0 30 -49 35 -73 9z"/>
<path d="M13838 1559 c-34 -19 -15 -109 23 -109 17 0 49 20 49 31 0 5 -11 2
-24 -6 -22 -14 -25 -14 -40 0 -20 21 -20 49 0 69 19 20 19 20 39 0 20 -20 33
-11 15 11 -14 17 -37 19 -62 4z"/>
<path d="M13958 1559 c-27 -15 -25 -85 3 -100 50 -27 98 36 65 86 -17 26 -40
31 -68 14z m50 -11 c19 -19 15 -66 -7 -78 -39 -20 -68 41 -35 74 19 19 26 20
42 4z"/>
<path d="M14074 1515 l1 -60 43 -1 42 -1 0 59 c0 69 -18 78 -22 11 -3 -41 -6
-48 -25 -51 -23 -3 -27 5 -37 73 -2 17 -3 3 -2 -30z"/>
<path d="M14190 1508 c0 -69 18 -78 22 -10 3 40 6 47 25 50 23 3 27 -5 37 -73
2 -16 3 -3 2 30 l-1 60 -42 1 -43 1 0 -59z"/>
<path d="M14651 1528 c-17 -45 22 -94 57 -72 11 8 17 24 17 50 0 37 -2 39 -33
42 -26 3 -34 -1 -41 -20z m57 0 c17 -17 15 -43 -4 -58 -22 -19 -49 9 -40 44 7
28 25 33 44 14z"/>
<path d="M14767 1543 c-4 -3 -7 -21 -7 -38 0 -36 22 -60 45 -51 9 3 15 0 15
-10 0 -12 -7 -15 -30 -12 -33 5 -41 -7 -10 -17 10 -3 28 -1 40 5 17 9 20 21
20 70 l0 60 -33 0 c-19 0 -37 -3 -40 -7z m51 -39 c2 -21 -2 -33 -12 -37 -21
-8 -39 19 -32 49 10 36 40 28 44 -12z"/>
<path d="M14923 1500 c0 -30 2 -43 4 -27 2 15 2 39 0 55 -2 15 -4 2 -4 -28z"/>
<path d="M14960 1501 c0 -62 18 -68 22 -9 2 31 8 44 21 46 14 3 17 -4 17 -42
0 -26 5 -46 11 -46 6 0 9 19 7 48 -3 47 -3 47 -40 50 l-38 3 0 -50z"/>
<path d="M14410 1460 c0 -5 5 -10 10 -10 6 0 10 5 10 10 0 6 -4 10 -10 10 -5
0 -10 -4 -10 -10z"/>
</g>
</svg>
